# Blender 4.5.3 LTS
# www.blender.org
mtllib Button (Blue).mtl
o Cylinder.001
v 0.000000 0.186611 -0.892125
v 0.168559 0.186611 -0.874983
v 0.330640 0.186611 -0.824216
v 0.480014 0.186611 -0.741775
v 0.610942 0.186611 -0.630828
v 0.718392 0.186611 -0.495638
v 0.798235 0.186611 -0.341402
v 0.847401 0.186611 -0.174045
v 0.864003 0.186611 0.000000
v 0.847318 0.187216 0.174028
v 0.798156 0.187216 0.341368
v 0.718322 0.187216 0.495590
v 0.610882 0.187216 0.630766
v 0.479967 0.187216 0.741702
v 0.330607 0.187216 0.824135
v 0.168542 0.187216 0.874897
v 0.000000 0.186611 0.892125
v -0.168559 0.186611 0.874983
v -0.330607 0.187216 0.824135
v -0.479967 0.187216 0.741702
v -0.610882 0.187216 0.630766
v -0.718322 0.187216 0.495590
v -0.798156 0.187216 0.341368
v -0.847401 0.186611 0.174045
v -0.864003 0.186611 0.000000
v -0.847318 0.187216 -0.174028
v -0.798235 0.186611 -0.341402
v -0.718392 0.186611 -0.495638
v -0.610942 0.186611 -0.630828
v -0.480014 0.186611 -0.741775
v -0.330640 0.186611 -0.824216
v -0.168559 0.186611 -0.874983
v 0.000000 -0.258661 -1.000089
v 0.000000 0.258660 -1.000089
v 0.195108 -0.258661 -0.980873
v 0.195108 0.258660 -0.980873
v 0.382718 -0.258661 -0.923962
v 0.382718 0.258660 -0.923962
v 0.555620 -0.258661 -0.831544
v 0.555620 0.258660 -0.831544
v 0.707170 -0.258661 -0.707170
v 0.707170 0.258660 -0.707170
v 0.831544 -0.258661 -0.555620
v 0.831544 0.258660 -0.555620
v 0.923962 -0.258661 -0.382718
v 0.923962 0.258660 -0.382718
v 0.980873 -0.258661 -0.195108
v 0.980873 0.258660 -0.195108
v 1.000089 -0.258661 0.000000
v 1.000089 0.258660 0.000000
v 0.980873 -0.258661 0.195108
v 0.980873 0.258660 0.195108
v 0.923962 -0.258661 0.382718
v 0.923962 0.258660 0.382718
v 0.831544 -0.258661 0.555620
v 0.831544 0.258660 0.555620
v 0.707170 -0.258661 0.707170
v 0.707170 0.258660 0.707170
v 0.555620 -0.258661 0.831544
v 0.555620 0.258660 0.831544
v 0.382718 -0.258661 0.923962
v 0.382718 0.258660 0.923962
v 0.195108 -0.258661 0.980873
v 0.195108 0.258660 0.980873
v 0.000000 -0.258661 1.000089
v 0.000000 0.258660 1.000089
v -0.195108 -0.258661 0.980873
v -0.195108 0.258660 0.980873
v -0.382718 -0.258661 0.923962
v -0.382718 0.258660 0.923962
v -0.555620 -0.258661 0.831544
v -0.555620 0.258660 0.831544
v -0.707170 -0.258661 0.707170
v -0.707170 0.258660 0.707170
v -0.831544 -0.258661 0.555620
v -0.831544 0.258660 0.555620
v -0.923962 -0.258661 0.382718
v -0.923962 0.258660 0.382718
v -0.980873 -0.258661 0.195108
v -0.980873 0.258660 0.195108
v -1.000089 -0.258661 0.000000
v -1.000089 0.258660 0.000000
v -0.980873 -0.258661 -0.195108
v -0.980873 0.258660 -0.195108
v -0.923962 -0.258661 -0.382718
v -0.923962 0.258660 -0.382718
v -0.831544 -0.258661 -0.555620
v -0.831544 0.258660 -0.555620
v -0.707170 -0.258661 -0.707170
v -0.707170 0.258660 -0.707170
v -0.555620 -0.258661 -0.831544
v -0.555620 0.258660 -0.831544
v -0.382718 -0.258661 -0.923962
v -0.382718 0.258660 -0.923962
v -0.195108 -0.258661 -0.980873
v -0.195108 0.258660 -0.980873
v -0.000000 0.486121 -0.684156
v 0.000000 0.448125 -0.889041
v 0.129265 0.486121 -0.671010
v 0.167976 0.448125 -0.871958
v 0.253562 0.486121 -0.632078
v 0.329497 0.448125 -0.821367
v 0.368115 0.486121 -0.568855
v 0.478355 0.448125 -0.739211
v 0.468521 0.486121 -0.483771
v 0.608830 0.448125 -0.628647
v 0.550923 0.486121 -0.380097
v 0.715909 0.448125 -0.493925
v 0.612153 0.486121 -0.261815
v 0.795475 0.448125 -0.340221
v 0.649858 0.486121 -0.133472
v 0.844472 0.448125 -0.173443
v 0.662589 0.486121 -0.000000
v 0.861016 0.448125 0.000000
v 0.649858 0.486121 0.133472
v 0.844472 0.448125 0.173443
v 0.612153 0.486121 0.261815
v 0.795475 0.448125 0.340221
v 0.550923 0.486121 0.380097
v 0.715909 0.448125 0.493925
v 0.468521 0.486121 0.483771
v 0.608830 0.448125 0.628647
v 0.368115 0.486121 0.568855
v 0.478355 0.448125 0.739211
v 0.253562 0.486121 0.632078
v 0.329497 0.448125 0.821367
v 0.129265 0.486121 0.671010
v 0.167976 0.448125 0.871958
v 0.000000 0.486121 0.684156
v 0.000000 0.448125 0.889041
v -0.129265 0.486121 0.671010
v -0.167976 0.448125 0.871958
v -0.253562 0.486121 0.632078
v -0.329497 0.448125 0.821367
v -0.368115 0.486121 0.568855
v -0.478355 0.448125 0.739211
v -0.468521 0.486121 0.483771
v -0.608830 0.448125 0.628647
v -0.550923 0.486121 0.380097
v -0.715909 0.448125 0.493925
v -0.612153 0.486121 0.261815
v -0.795475 0.448125 0.340221
v -0.649858 0.486121 0.133472
v -0.844472 0.448125 0.173443
v -0.662589 0.486121 0.000000
v -0.861016 0.448125 0.000000
v -0.649858 0.486121 -0.133472
v -0.844472 0.448125 -0.173443
v -0.612153 0.486121 -0.261815
v -0.795475 0.448125 -0.340221
v -0.550923 0.486121 -0.380097
v -0.715909 0.448125 -0.493925
v -0.468521 0.486121 -0.483771
v -0.608830 0.448125 -0.628647
v -0.368115 0.486121 -0.568855
v -0.478355 0.448125 -0.739211
v -0.253562 0.486121 -0.632078
v -0.329497 0.448125 -0.821367
v -0.129265 0.486121 -0.671010
v -0.167976 0.448125 -0.871958
vn -0.0000 -1.0000 0.0003
vn -0.0000 -0.0000 -1.0000
vn 0.1952 -0.0000 -0.9808
vn 0.3829 -0.0000 -0.9238
vn 0.5558 -0.0000 -0.8313
vn 0.7073 -0.0000 -0.7069
vn 0.8316 -0.0000 -0.5553
vn 0.9240 -0.0000 -0.3825
vn 0.9808 -0.0000 -0.1950
vn 1.0000 -0.0000 -0.0000
vn 0.9808 -0.0000 0.1950
vn 0.9240 -0.0000 0.3825
vn 0.8316 -0.0000 0.5553
vn 0.7073 -0.0000 0.7069
vn 0.5558 -0.0000 0.8313
vn 0.3829 -0.0000 0.9238
vn 0.1952 -0.0000 0.9808
vn -0.0000 -0.0000 1.0000
vn -0.1952 -0.0000 0.9808
vn -0.3829 -0.0000 0.9238
vn -0.5558 -0.0000 0.8313
vn -0.7073 -0.0000 0.7069
vn -0.8316 -0.0000 0.5553
vn -0.9240 -0.0000 0.3825
vn -0.9808 -0.0000 0.1950
vn -1.0000 -0.0000 -0.0000
vn -0.9808 -0.0000 -0.1950
vn -0.9240 -0.0000 -0.3825
vn -0.8316 -0.0000 -0.5553
vn -0.7073 -0.0000 -0.7069
vn -0.5558 -0.0000 -0.8313
vn -0.3829 -0.0000 -0.9238
vn -0.0000 1.0000 -0.0000
vn -0.1952 -0.0000 -0.9808
vn -0.0000 -1.0000 -0.0000
vn 0.0367 0.9832 -0.1788
vn -0.0000 0.9832 -0.1823
vn 0.0720 0.9831 -0.1684
vn 0.1046 0.9829 -0.1516
vn 0.1331 0.9827 -0.1289
vn 0.1564 0.9825 -0.1012
vn 0.1738 0.9823 -0.0697
vn 0.1845 0.9822 -0.0355
vn 0.1881 0.9822 -0.0000
vn 0.1845 0.9822 0.0355
vn 0.1738 0.9823 0.0697
vn 0.1564 0.9825 0.1012
vn 0.1331 0.9827 0.1289
vn 0.1046 0.9829 0.1516
vn 0.0720 0.9831 0.1684
vn 0.0367 0.9832 0.1788
vn -0.0000 0.9832 0.1823
vn -0.0367 0.9832 0.1788
vn -0.0720 0.9831 0.1684
vn -0.1046 0.9829 0.1516
vn -0.1331 0.9827 0.1289
vn -0.1564 0.9825 0.1012
vn -0.1738 0.9823 0.0697
vn -0.1845 0.9822 0.0355
vn -0.1881 0.9822 -0.0000
vn -0.1845 0.9822 -0.0355
vn -0.1738 0.9823 -0.0697
vn -0.1564 0.9825 -0.1012
vn -0.1331 0.9827 -0.1289
vn -0.1046 0.9829 -0.1516
vn -0.0720 0.9831 -0.1684
vn -0.0367 0.9832 -0.1788
vn -0.0000 0.0118 -0.9999
vn 0.2012 0.0118 -0.9795
vn -0.2012 0.0118 -0.9795
vn 0.3932 0.0117 -0.9194
vn 0.5678 0.0117 -0.8231
vn 0.7183 0.0116 -0.6956
vn 0.8395 0.0115 -0.5432
vn 0.9280 0.0115 -0.3723
vn 0.9819 0.0114 -0.1892
vn 0.9999 0.0113 0.0001
vn 0.9999 0.0113 -0.0004
vn 0.9819 0.0112 0.1893
vn 0.9820 0.0112 0.1887
vn 0.9280 0.0112 0.3723
vn 0.8395 0.0112 0.5433
vn 0.7183 0.0113 0.6956
vn 0.5678 0.0114 0.8231
vn 0.3932 0.0114 0.9194
vn 0.2013 0.0115 0.9795
vn 0.2007 0.0115 0.9796
vn 0.0001 0.0117 0.9999
vn -0.0005 0.0117 0.9999
vn -0.2013 0.0117 0.9795
vn -0.2007 0.0117 0.9796
vn -0.3933 0.0115 0.9193
vn -0.3928 0.0115 0.9196
vn -0.5678 0.0114 0.8231
vn -0.7183 0.0113 0.6956
vn -0.8395 0.0112 0.5433
vn -0.9280 0.0112 0.3724
vn -0.9282 0.0112 0.3719
vn -0.9819 0.0114 0.1893
vn -0.9820 0.0114 0.1887
vn -0.9999 0.0113 -0.0001
vn -0.9999 0.0113 0.0004
vn -0.9819 0.0113 -0.1892
vn -0.9281 0.0114 -0.3722
vn -0.9279 0.0114 -0.3727
vn -0.8395 0.0115 -0.5432
vn -0.7183 0.0116 -0.6956
vn -0.5678 0.0117 -0.8231
vn -0.3932 0.0117 -0.9194
vt 0.750000 0.490000
vt 0.796822 0.485388
vt 0.841844 0.471731
vt 0.883337 0.449553
vt 0.919706 0.419706
vt 0.949553 0.383337
vt 0.971731 0.341844
vt 0.985388 0.296822
vt 0.990000 0.250000
vt 0.985388 0.203178
vt 0.971731 0.158156
vt 0.949553 0.116663
vt 0.919706 0.080294
vt 0.883337 0.050447
vt 0.841844 0.028269
vt 0.796822 0.014612
vt 0.750000 0.010000
vt 0.703178 0.014612
vt 0.658156 0.028269
vt 0.616663 0.050447
vt 0.580294 0.080294
vt 0.550447 0.116663
vt 0.528269 0.158156
vt 0.514612 0.203178
vt 0.510000 0.250000
vt 0.514612 0.296822
vt 0.528269 0.341844
vt 0.550447 0.383337
vt 0.580294 0.419706
vt 0.616663 0.449553
vt 0.658156 0.471731
vt 0.703178 0.485388
vt 1.000000 0.500000
vt 1.000000 1.000000
vt 0.968750 1.000000
vt 0.968750 0.500000
vt 0.937500 1.000000
vt 0.937500 0.500000
vt 0.906250 1.000000
vt 0.906250 0.500000
vt 0.875000 1.000000
vt 0.875000 0.500000
vt 0.843750 1.000000
vt 0.843750 0.500000
vt 0.812500 1.000000
vt 0.812500 0.500000
vt 0.781250 1.000000
vt 0.781250 0.500000
vt 0.750000 1.000000
vt 0.750000 0.500000
vt 0.718750 1.000000
vt 0.718750 0.500000
vt 0.687500 1.000000
vt 0.687500 0.500000
vt 0.656250 1.000000
vt 0.656250 0.500000
vt 0.625000 1.000000
vt 0.625000 0.500000
vt 0.593750 1.000000
vt 0.593750 0.500000
vt 0.562500 1.000000
vt 0.562500 0.500000
vt 0.531250 1.000000
vt 0.531250 0.500000
vt 0.500000 1.000000
vt 0.500000 0.500000
vt 0.468750 1.000000
vt 0.468750 0.500000
vt 0.437500 1.000000
vt 0.437500 0.500000
vt 0.406250 1.000000
vt 0.406250 0.500000
vt 0.375000 1.000000
vt 0.375000 0.500000
vt 0.343750 1.000000
vt 0.343750 0.500000
vt 0.312500 1.000000
vt 0.312500 0.500000
vt 0.281250 1.000000
vt 0.281250 0.500000
vt 0.250000 1.000000
vt 0.250000 0.500000
vt 0.218750 1.000000
vt 0.218750 0.500000
vt 0.187500 1.000000
vt 0.187500 0.500000
vt 0.156250 1.000000
vt 0.156250 0.500000
vt 0.125000 1.000000
vt 0.125000 0.500000
vt 0.093750 1.000000
vt 0.093750 0.500000
vt 0.062500 1.000000
vt 0.062500 0.500000
vt 0.296822 0.485388
vt 0.250000 0.490000
vt 0.203178 0.485388
vt 0.158156 0.471731
vt 0.116663 0.449553
vt 0.080294 0.419706
vt 0.050447 0.383337
vt 0.028269 0.341844
vt 0.014612 0.296822
vt 0.010000 0.250000
vt 0.014612 0.203178
vt 0.028269 0.158156
vt 0.050447 0.116663
vt 0.080294 0.080294
vt 0.116663 0.050447
vt 0.158156 0.028269
vt 0.203178 0.014612
vt 0.250000 0.010000
vt 0.296822 0.014612
vt 0.341844 0.028269
vt 0.383337 0.050447
vt 0.419706 0.080294
vt 0.449553 0.116663
vt 0.471731 0.158156
vt 0.485388 0.203178
vt 0.490000 0.250000
vt 0.485388 0.296822
vt 0.471731 0.341844
vt 0.449553 0.383337
vt 0.419706 0.419706
vt 0.383337 0.449553
vt 0.341844 0.471731
vt 0.031250 1.000000
vt 0.031250 0.500000
vt 0.000000 1.000000
vt 0.000000 0.500000
vt 0.296822 0.485388
vt 0.250000 0.434992
vt 0.286090 0.431437
vt 0.341844 0.471731
vt 0.320793 0.420910
vt 0.383337 0.449553
vt 0.352776 0.403815
vt 0.380809 0.380809
vt 0.449553 0.383337
vt 0.403815 0.352776
vt 0.471731 0.341844
vt 0.420910 0.320793
vt 0.431437 0.286090
vt 0.490000 0.250000
vt 0.434992 0.250000
vt 0.485388 0.203178
vt 0.431437 0.213910
vt 0.471731 0.158156
vt 0.420910 0.179207
vt 0.403815 0.147224
vt 0.380809 0.119191
vt 0.352776 0.096185
vt 0.341844 0.028269
vt 0.320793 0.079090
vt 0.296822 0.014612
vt 0.286090 0.068563
vt 0.250000 0.065009
vt 0.203178 0.014612
vt 0.213910 0.068563
vt 0.158156 0.028269
vt 0.179207 0.079090
vt 0.116663 0.050447
vt 0.147224 0.096185
vt 0.119191 0.119191
vt 0.096185 0.147224
vt 0.028269 0.158156
vt 0.079090 0.179207
vt 0.014612 0.203178
vt 0.068563 0.213910
vt 0.010000 0.250000
vt 0.065009 0.250000
vt 0.014612 0.296822
vt 0.068563 0.286090
vt 0.079090 0.320793
vt 0.050447 0.383337
vt 0.096185 0.352776
vt 0.119191 0.380809
vt 0.116663 0.449553
vt 0.147224 0.403815
vt 0.158156 0.471731
vt 0.179207 0.420910
vt 0.203178 0.485388
vt 0.213910 0.431437
vt 1.000000 0.935922
vt 0.968750 0.935922
vt 0.031250 0.935922
vt 0.000000 0.935922
vt 0.937500 0.935922
vt 0.906250 0.935922
vt 0.875000 0.935922
vt 0.843750 0.935922
vt 0.812500 0.935922
vt 0.781250 0.935922
vt 0.750000 0.935922
vt 0.718750 0.935922
vt 0.687500 0.935922
vt 0.656250 0.935922
vt 0.625000 0.935922
vt 0.593750 0.935922
vt 0.562500 0.935922
vt 0.531250 0.935922
vt 0.500000 0.935922
vt 0.468750 0.935922
vt 0.437500 0.935922
vt 0.406250 0.935922
vt 0.375000 0.935922
vt 0.343750 0.935922
vt 0.312500 0.935922
vt 0.281250 0.935922
vt 0.250000 0.935922
vt 0.218750 0.935922
vt 0.187500 0.935922
vt 0.156250 0.935922
vt 0.125000 0.935922
vt 0.093750 0.935922
vt 0.062500 0.935922
s 1
usemtl Material.004
f 1/1/1 2/2/1 3/3/1 4/4/1 5/5/1 6/6/1 7/7/1 8/8/1 9/9/1 10/10/1 11/11/1 12/12/1 13/13/1 14/14/1 15/15/1 16/16/1 17/17/1 18/18/1 19/19/1 20/20/1 21/21/1 22/22/1 23/23/1 24/24/1 25/25/1 26/26/1 27/27/1 28/28/1 29/29/1 30/30/1 31/31/1 32/32/1
f 100/131/36 98/96/37 97/132/37 99/133/36
f 102/134/38 100/131/36 99/133/36 101/135/38
f 104/136/39 102/134/38 101/135/38 103/137/39
f 106/124/40 104/136/39 103/137/39 105/138/40
f 108/139/41 106/124/40 105/138/40 107/140/41
f 110/141/42 108/139/41 107/140/41 109/142/42
f 112/121/43 110/141/42 109/142/42 111/143/43
f 114/144/44 112/121/43 111/143/43 113/145/44
f 116/146/45 114/144/44 113/145/44 115/147/45
f 118/148/46 116/146/45 115/147/45 117/149/46
f 120/117/47 118/148/46 117/149/46 119/150/47
f 122/116/48 120/117/47 119/150/47 121/151/48
f 124/115/49 122/116/48 121/151/48 123/152/49
f 126/153/50 124/115/49 123/152/49 125/154/50
f 128/155/51 126/153/50 125/154/50 127/156/51
f 130/112/52 128/155/51 127/156/51 129/157/52
f 132/158/53 130/112/52 129/157/52 131/159/53
f 134/160/54 132/158/53 131/159/53 133/161/54
f 136/162/55 134/160/54 133/161/54 135/163/55
f 138/108/56 136/162/55 135/163/55 137/164/56
f 140/107/57 138/108/56 137/164/56 139/165/57
f 142/166/58 140/107/57 139/165/57 141/167/58
f 144/168/59 142/166/58 141/167/58 143/169/59
f 146/170/60 144/168/59 143/169/59 145/171/60
f 148/172/61 146/170/60 145/171/60 147/173/61
f 150/102/62 148/172/61 147/173/61 149/174/62
f 152/175/63 150/102/62 149/174/62 151/176/63
f 154/100/64 152/175/63 151/176/63 153/177/64
f 156/178/65 154/100/64 153/177/64 155/179/65
f 158/180/66 156/178/65 155/179/65 157/181/66
f 160/182/67 158/180/66 157/181/66 159/183/67
f 98/96/37 160/182/67 159/183/67 97/132/37
f 99/133/33 97/132/33 159/183/33 157/181/33 155/179/33 153/177/33 151/176/33 149/174/33 147/173/33 145/171/33 143/169/33 141/167/33 139/165/33 137/164/33 135/163/33 133/161/33 131/159/33 129/157/33 127/156/33 125/154/33 123/152/33 121/151/33 119/150/33 117/149/33 115/147/33 113/145/33 111/143/33 109/142/33 107/140/33 105/138/33 103/137/33 101/135/33
f 1/33/68 98/184/68 100/185/69 2/36/69
f 32/128/70 160/186/70 98/187/68 1/130/68
f 2/36/69 100/185/69 102/188/71 3/38/71
f 3/38/71 102/188/71 104/189/72 4/40/72
f 4/40/72 104/189/72 106/190/73 5/42/73
f 5/42/73 106/190/73 108/191/74 6/44/74
f 6/44/74 108/191/74 110/192/75 7/46/75
f 7/46/75 110/192/75 112/193/76 8/48/76
f 8/48/76 112/193/76 114/194/77 9/50/78
f 9/50/78 114/194/77 116/195/79 10/52/80
f 10/52/80 116/195/79 118/196/81 11/54/81
f 11/54/81 118/196/81 120/197/82 12/56/82
f 12/56/82 120/197/82 122/198/83 13/58/83
f 13/58/83 122/198/83 124/199/84 14/60/84
f 14/60/84 124/199/84 126/200/85 15/62/85
f 15/62/85 126/200/85 128/201/86 16/64/87
f 16/64/87 128/201/86 130/202/88 17/66/89
f 17/66/89 130/202/88 132/203/90 18/68/91
f 18/68/91 132/203/90 134/204/92 19/70/93
f 19/70/93 134/204/92 136/205/94 20/72/94
f 20/72/94 136/205/94 138/206/95 21/74/95
f 21/74/95 138/206/95 140/207/96 22/76/96
f 22/76/96 140/207/96 142/208/97 23/78/98
f 23/78/98 142/208/97 144/209/99 24/80/100
f 24/80/100 144/209/99 146/210/101 25/82/102
f 25/82/102 146/210/101 148/211/103 26/84/103
f 26/84/103 148/211/103 150/212/104 27/86/105
f 27/86/105 150/212/104 152/213/106 28/88/106
f 28/88/106 152/213/106 154/214/107 29/90/107
f 29/90/107 154/214/107 156/215/108 30/92/108
f 30/92/108 156/215/108 158/216/109 31/94/109
f 31/94/109 158/216/109 160/186/70 32/128/70
usemtl Material.002
f 33/33/2 34/34/2 36/35/3 35/36/3
f 35/36/3 36/35/3 38/37/4 37/38/4
f 37/38/4 38/37/4 40/39/5 39/40/5
f 39/40/5 40/39/5 42/41/6 41/42/6
f 41/42/6 42/41/6 44/43/7 43/44/7
f 43/44/7 44/43/7 46/45/8 45/46/8
f 45/46/8 46/45/8 48/47/9 47/48/9
f 47/48/9 48/47/9 50/49/10 49/50/10
f 49/50/10 50/49/10 52/51/11 51/52/11
f 51/52/11 52/51/11 54/53/12 53/54/12
f 53/54/12 54/53/12 56/55/13 55/56/13
f 55/56/13 56/55/13 58/57/14 57/58/14
f 57/58/14 58/57/14 60/59/15 59/60/15
f 59/60/15 60/59/15 62/61/16 61/62/16
f 61/62/16 62/61/16 64/63/17 63/64/17
f 63/64/17 64/63/17 66/65/18 65/66/18
f 65/66/18 66/65/18 68/67/19 67/68/19
f 67/68/19 68/67/19 70/69/20 69/70/20
f 69/70/20 70/69/20 72/71/21 71/72/21
f 71/72/21 72/71/21 74/73/22 73/74/22
f 73/74/22 74/73/22 76/75/23 75/76/23
f 75/76/23 76/75/23 78/77/24 77/78/24
f 77/78/24 78/77/24 80/79/25 79/80/25
f 79/80/25 80/79/25 82/81/26 81/82/26
f 81/82/26 82/81/26 84/83/27 83/84/27
f 83/84/27 84/83/27 86/85/28 85/86/28
f 85/86/28 86/85/28 88/87/29 87/88/29
f 87/88/29 88/87/29 90/89/30 89/90/30
f 89/90/30 90/89/30 92/91/31 91/92/31
f 91/92/31 92/91/31 94/93/32 93/94/32
f 36/95/33 34/96/33 96/97/33 94/98/33 92/99/33 90/100/33 88/101/33 86/102/33 84/103/33 82/104/33 80/105/33 78/106/33 76/107/33 74/108/33 72/109/33 70/110/33 68/111/33 66/112/33 64/113/33 62/114/33 60/115/33 58/116/33 56/117/33 54/118/33 52/119/33 50/120/33 48/121/33 46/122/33 44/123/33 42/124/33 40/125/33 38/126/33
f 93/94/32 94/93/32 96/127/34 95/128/34
f 95/128/34 96/127/34 34/129/2 33/130/2
f 33/1/35 35/2/35 37/3/35 39/4/35 41/5/35 43/6/35 45/7/35 47/8/35 49/9/35 51/10/35 53/11/35 55/12/35 57/13/35 59/14/35 61/15/35 63/16/35 65/17/35 67/18/35 69/19/35 71/20/35 73/21/35 75/22/35 77/23/35 79/24/35 81/25/35 83/26/35 85/27/35 87/28/35 89/29/35 91/30/35 93/31/35 95/32/35
