# Blender 4.5.3 LTS
# www.blender.org
mtllib Joystick (Stick and Ball).mtl
o Cylinder
v 0.000000 -1.744880 -0.179200
v 0.000000 2.493455 -0.179200
v 0.038418 -1.744880 -0.175757
v 0.038418 2.493455 -0.175757
v 0.075360 -1.744880 -0.165560
v 0.075360 2.493455 -0.165560
v 0.109405 -1.744880 -0.149000
v 0.109405 2.493455 -0.149000
v 0.139247 -1.744880 -0.126714
v 0.139247 2.493455 -0.126714
v 0.163737 -1.744880 -0.099558
v 0.163737 2.493455 -0.099558
v 0.181934 -1.744880 -0.068577
v 0.181934 2.493455 -0.068577
v 0.193141 -1.744880 -0.034960
v 0.193141 2.493455 -0.034960
v 0.196924 -1.744880 0.000000
v 0.196924 2.493455 0.000000
v 0.193141 -1.744880 0.034960
v 0.193141 2.493455 0.034960
v 0.181934 -1.744880 0.068577
v 0.181934 2.493455 0.068577
v 0.163737 -1.744880 0.099558
v 0.163737 2.493455 0.099558
v 0.139247 -1.744880 0.126714
v 0.139247 2.493455 0.126714
v 0.109405 -1.744880 0.149000
v 0.109405 2.493455 0.149000
v 0.075360 -1.744880 0.165560
v 0.075360 2.493455 0.165560
v 0.038418 -1.744880 0.175757
v 0.038418 2.493455 0.175757
v 0.000000 -1.744880 0.179200
v 0.000000 2.493455 0.179200
v -0.038418 -1.744880 0.175757
v -0.038418 2.493455 0.175757
v -0.075360 -1.744880 0.165560
v -0.075360 2.493455 0.165560
v -0.109405 -1.744880 0.149000
v -0.109405 2.493455 0.149000
v -0.139247 -1.744880 0.126714
v -0.139247 2.493455 0.126714
v -0.163737 -1.744880 0.099558
v -0.163737 2.493455 0.099558
v -0.181934 -1.744880 0.068577
v -0.181934 2.493455 0.068577
v -0.193141 -1.744880 0.034960
v -0.193141 2.493455 0.034960
v -0.196924 -1.744880 0.000000
v -0.196924 2.493455 0.000000
v -0.193141 -1.744880 -0.034960
v -0.193141 2.493455 -0.034960
v -0.181934 -1.744880 -0.068577
v -0.181934 2.493455 -0.068577
v -0.163737 -1.744880 -0.099558
v -0.163737 2.493455 -0.099558
v -0.139247 -1.744880 -0.126714
v -0.139247 2.493455 -0.126714
v -0.109405 -1.744880 -0.149000
v -0.109405 2.493455 -0.149000
v -0.075360 -1.744880 -0.165560
v -0.075360 2.493455 -0.165560
v -0.038418 -1.744880 -0.175757
v -0.038418 2.493455 -0.175757
v 0.000000 5.336952 -0.966618
v 0.000000 4.856924 -1.446645
v 0.000000 4.229737 -1.706434
v 0.000000 3.890306 -1.739866
v 0.000000 3.550875 -1.706434
v 0.000000 2.923689 -1.446645
v 0.066220 5.596741 -0.332909
v 0.129895 5.497733 -0.653024
v 0.188578 5.336952 -0.948044
v 0.240014 5.120577 -1.206631
v 0.282227 4.856924 -1.418848
v 0.313593 4.556124 -1.576540
v 0.332909 4.229737 -1.673646
v 0.339431 3.890306 -1.706434
v 0.332909 3.550875 -1.673646
v 0.313593 3.224488 -1.576540
v 0.282227 2.923689 -1.418848
v 0.240014 2.660035 -1.206631
v 0.188578 2.443661 -0.948044
v 0.129895 2.282880 -0.653024
v 0.066220 2.183872 -0.332909
v 0.129895 5.596741 -0.313593
v 0.254797 5.497733 -0.615135
v 0.369909 5.336952 -0.893038
v 0.470804 5.120577 -1.136622
v 0.553607 4.856924 -1.336526
v 0.615135 4.556124 -1.485068
v 0.653024 4.229737 -1.576540
v 0.665818 3.890306 -1.607426
v 0.653024 3.550875 -1.576540
v 0.615135 3.224488 -1.485068
v 0.553607 2.923689 -1.336526
v 0.470804 2.660035 -1.136622
v 0.369909 2.443661 -0.893038
v 0.254797 2.282880 -0.615135
v 0.129895 2.183872 -0.313593
v 0.188578 5.596741 -0.282226
v 0.369909 5.497733 -0.553607
v 0.537024 5.336952 -0.803713
v 0.683502 5.120577 -1.022933
v 0.803713 4.856924 -1.202841
v 0.893038 4.556124 -1.336526
v 0.948044 4.229737 -1.418848
v 0.966618 3.890306 -1.446645
v 0.948044 3.550875 -1.418848
v 0.893038 3.224488 -1.336526
v 0.803713 2.923689 -1.202841
v 0.683502 2.660035 -1.022933
v 0.537024 2.443661 -0.803713
v 0.369909 2.282880 -0.553607
v 0.188578 2.183872 -0.282226
v 0.240014 5.596741 -0.240014
v 0.470804 5.497733 -0.470804
v 0.683502 5.336952 -0.683502
v 0.869933 5.120577 -0.869933
v 1.022933 4.856924 -1.022932
v 1.136622 4.556124 -1.136622
v 1.206631 4.229737 -1.206631
v 1.230271 3.890306 -1.230270
v 1.206631 3.550875 -1.206631
v 1.136622 3.224488 -1.136622
v 1.022933 2.923689 -1.022932
v 0.869933 2.660035 -0.869933
v 0.683502 2.443661 -0.683502
v 0.470804 2.282880 -0.470804
v 0.240014 2.183872 -0.240014
v 0.282227 5.596741 -0.188578
v 0.553607 5.497733 -0.369908
v 0.803713 5.336952 -0.537024
v 1.022933 5.120577 -0.683502
v 1.202842 4.856924 -0.803713
v 1.336526 4.556124 -0.893038
v 1.418848 4.229737 -0.948044
v 1.446645 3.890306 -0.966617
v 1.418848 3.550875 -0.948044
v 1.336526 3.224488 -0.893038
v 1.202842 2.923689 -0.803713
v 1.022933 2.660035 -0.683502
v 0.803713 2.443661 -0.537024
v 0.553607 2.282880 -0.369908
v 0.282227 2.183872 -0.188578
v 0.000000 5.630172 0.000000
v 0.313593 5.596741 -0.129895
v 0.615135 5.497733 -0.254797
v 0.893038 5.336952 -0.369908
v 1.136622 5.120577 -0.470804
v 1.336526 4.856924 -0.553607
v 1.485068 4.556124 -0.615135
v 1.576540 4.229737 -0.653024
v 1.607426 3.890306 -0.665817
v 1.576540 3.550875 -0.653024
v 1.485068 3.224488 -0.615135
v 1.336526 2.923689 -0.553607
v 1.136622 2.660035 -0.470804
v 0.893038 2.443661 -0.369908
v 0.615135 2.282880 -0.254797
v 0.313593 2.183872 -0.129895
v 0.332909 5.596741 -0.066220
v 0.653024 5.497733 -0.129895
v 0.948044 5.336952 -0.188578
v 1.206631 5.120577 -0.240014
v 1.418848 4.856924 -0.282226
v 1.576540 4.556124 -0.313593
v 1.673646 4.229737 -0.332909
v 1.706434 3.890306 -0.339431
v 1.673646 3.550875 -0.332909
v 1.576540 3.224488 -0.313593
v 1.418848 2.923689 -0.282226
v 1.206631 2.660035 -0.240014
v 0.948044 2.443661 -0.188578
v 0.653024 2.282880 -0.129895
v 0.332909 2.183872 -0.066220
v 0.339431 5.596741 0.000000
v 0.665818 5.497733 0.000000
v 0.966617 5.336952 0.000000
v 1.230271 5.120577 -0.000000
v 1.446645 4.856924 0.000000
v 1.607426 4.556124 -0.000000
v 1.706434 4.229737 0.000000
v 1.739865 3.890306 0.000000
v 1.706434 3.550875 0.000000
v 1.607426 3.224488 -0.000000
v 1.446645 2.923689 0.000000
v 1.230271 2.660035 -0.000000
v 0.966617 2.443661 0.000000
v 0.665818 2.282880 0.000000
v 0.339431 2.183872 0.000000
v 0.332909 5.596741 0.066220
v 0.653024 5.497733 0.129895
v 0.948044 5.336952 0.188578
v 1.206631 5.120577 0.240014
v 1.418848 4.856924 0.282227
v 1.576540 4.556124 0.313593
v 1.673646 4.229737 0.332909
v 1.706434 3.890306 0.339431
v 1.673646 3.550875 0.332909
v 1.576540 3.224488 0.313593
v 1.418848 2.923689 0.282227
v 1.206631 2.660035 0.240014
v 0.948044 2.443661 0.188578
v 0.653024 2.282880 0.129895
v 0.332909 2.183872 0.066220
v 0.313593 5.596741 0.129895
v 0.615135 5.497733 0.254797
v 0.893038 5.336952 0.369909
v 1.136622 5.120577 0.470804
v 1.336526 4.856924 0.553607
v 1.485068 4.556124 0.615135
v 1.576540 4.229737 0.653024
v 1.607425 3.890306 0.665818
v 1.576540 3.550875 0.653024
v 1.485068 3.224488 0.615135
v 1.336526 2.923689 0.553607
v 1.136622 2.660035 0.470804
v 0.893038 2.443661 0.369909
v 0.615135 2.282880 0.254797
v 0.313593 2.183872 0.129895
v 0.282226 5.596741 0.188578
v 0.553607 5.497733 0.369909
v 0.803713 5.336952 0.537024
v 1.022933 5.120577 0.683502
v 1.202841 4.856924 0.803713
v 1.336526 4.556124 0.893038
v 1.418848 4.229737 0.948044
v 1.446645 3.890306 0.966617
v 1.418848 3.550875 0.948044
v 1.336526 3.224488 0.893038
v 1.202841 2.923689 0.803713
v 1.022933 2.660035 0.683502
v 0.803713 2.443661 0.537024
v 0.553607 2.282880 0.369909
v 0.282226 2.183872 0.188578
v 0.240014 5.596741 0.240014
v 0.470804 5.497733 0.470804
v 0.683501 5.336952 0.683502
v 0.869933 5.120577 0.869933
v 1.022932 4.856924 1.022932
v 1.136622 4.556124 1.136622
v 1.206631 4.229737 1.206631
v 1.230270 3.890306 1.230271
v 1.206631 3.550875 1.206631
v 1.136622 3.224488 1.136622
v 1.022932 2.923689 1.022932
v 0.869933 2.660035 0.869933
v 0.683501 2.443661 0.683502
v 0.470804 2.282880 0.470804
v 0.240014 2.183872 0.240014
v 0.188578 5.596741 0.282226
v 0.369908 5.497733 0.553607
v 0.537024 5.336952 0.803713
v 0.683502 5.120577 1.022933
v 0.803713 4.856924 1.202841
v 0.893038 4.556124 1.336526
v 0.948044 4.229737 1.418848
v 0.966617 3.890306 1.446645
v 0.948044 3.550875 1.418848
v 0.893038 3.224488 1.336526
v 0.803713 2.923689 1.202841
v 0.683502 2.660035 1.022933
v 0.537024 2.443661 0.803713
v 0.369908 2.282880 0.553607
v 0.188578 2.183872 0.282226
v 0.129895 5.596741 0.313593
v 0.254797 5.497733 0.615135
v 0.369908 5.336952 0.893038
v 0.470804 5.120577 1.136622
v 0.553607 4.856924 1.336526
v 0.615135 4.556124 1.485068
v 0.653024 4.229737 1.576540
v 0.665817 3.890306 1.607426
v 0.653024 3.550875 1.576540
v 0.615135 3.224488 1.485068
v 0.553607 2.923689 1.336526
v 0.470804 2.660035 1.136622
v 0.369908 2.443661 0.893038
v 0.254797 2.282880 0.615135
v 0.129895 2.183872 0.313593
v 0.066220 5.596741 0.332909
v 0.129894 5.497733 0.653024
v 0.188577 5.336952 0.948044
v 0.240014 5.120577 1.206631
v 0.282226 4.856924 1.418848
v 0.313593 4.556124 1.576540
v 0.332909 4.229737 1.673645
v 0.339430 3.890306 1.706434
v 0.332909 3.550875 1.673645
v 0.313593 3.224488 1.576540
v 0.282226 2.923689 1.418848
v 0.240014 2.660035 1.206631
v 0.188577 2.443661 0.948044
v 0.129894 2.282880 0.653024
v 0.066220 2.183872 0.332909
v -0.000000 5.596741 0.339431
v -0.000000 5.497733 0.665818
v -0.000000 5.336952 0.966617
v -0.000000 5.120577 1.230271
v -0.000000 4.856924 1.446645
v 0.000000 4.556124 1.607426
v -0.000000 4.229737 1.706434
v -0.000001 3.890306 1.739864
v -0.000000 3.550875 1.706434
v 0.000000 3.224488 1.607426
v -0.000000 2.923689 1.446645
v -0.000000 2.660035 1.230271
v -0.000000 2.443661 0.966617
v -0.000000 2.282880 0.665818
v -0.000000 2.183872 0.339431
v -0.066220 5.596741 0.332909
v -0.129895 5.497733 0.653024
v -0.188578 5.336952 0.948044
v -0.240014 5.120577 1.206631
v -0.282227 4.856924 1.418848
v -0.313593 4.556124 1.576539
v -0.332909 4.229737 1.673645
v -0.339431 3.890306 1.706433
v -0.332909 3.550875 1.673645
v -0.313593 3.224488 1.576539
v -0.282227 2.923689 1.418848
v -0.240014 2.660035 1.206631
v -0.188578 2.443661 0.948044
v -0.129895 2.282880 0.653024
v -0.066220 2.183872 0.332909
v -0.129895 5.596741 0.313593
v -0.254797 5.497733 0.615135
v -0.369908 5.336952 0.893037
v -0.470804 5.120577 1.136622
v -0.553607 4.856924 1.336525
v -0.615135 4.556124 1.485068
v -0.653024 4.229737 1.576539
v -0.665818 3.890306 1.607425
v -0.653024 3.550875 1.576539
v -0.615135 3.224488 1.485068
v -0.553607 2.923689 1.336525
v -0.470804 2.660035 1.136622
v -0.369908 2.443661 0.893037
v -0.254797 2.282880 0.615135
v -0.129895 2.183872 0.313593
v -0.188578 5.596741 0.282226
v -0.369908 5.497733 0.553607
v -0.537024 5.336952 0.803712
v -0.683502 5.120577 1.022932
v -0.803713 4.856924 1.202841
v -0.893038 4.556124 1.336526
v -0.948044 4.229737 1.418848
v -0.966617 3.890306 1.446644
v -0.948044 3.550875 1.418848
v -0.893038 3.224488 1.336526
v -0.803713 2.923689 1.202841
v -0.683502 2.660035 1.022932
v -0.537024 2.443661 0.803712
v -0.369908 2.282880 0.553607
v -0.188578 2.183872 0.282226
v -0.240014 5.596741 0.240014
v -0.470804 5.497733 0.470804
v -0.683501 5.336952 0.683501
v -0.869933 5.120577 0.869933
v -1.022932 4.856924 1.022932
v -1.136621 4.556124 1.136622
v -1.206631 4.229737 1.206631
v -1.230270 3.890306 1.230269
v -1.206631 3.550875 1.206631
v -1.136621 3.224488 1.136622
v -1.022932 2.923689 1.022932
v -0.869933 2.660035 0.869933
v -0.683501 2.443661 0.683501
v -0.470804 2.282880 0.470804
v -0.240014 2.183872 0.240014
v 0.000000 2.150441 0.000000
v -0.282226 5.596741 0.188578
v -0.553607 5.497733 0.369908
v -0.803713 5.336952 0.537023
v -1.022933 5.120577 0.683502
v -1.202841 4.856924 0.803712
v -1.336525 4.556124 0.893038
v -1.418848 4.229737 0.948043
v -1.446645 3.890306 0.966616
v -1.418848 3.550875 0.948043
v -1.336525 3.224488 0.893038
v -1.202841 2.923689 0.803712
v -1.022933 2.660035 0.683502
v -0.803713 2.443661 0.537023
v -0.553607 2.282880 0.369908
v -0.282226 2.183872 0.188578
v -0.313593 5.596741 0.129894
v -0.615135 5.497733 0.254797
v -0.893038 5.336952 0.369908
v -1.136622 5.120577 0.470804
v -1.336525 4.856924 0.553607
v -1.485068 4.556124 0.615135
v -1.576540 4.229737 0.653024
v -1.607425 3.890306 0.665816
v -1.576540 3.550875 0.653024
v -1.485068 3.224488 0.615135
v -1.336525 2.923689 0.553607
v -1.136622 2.660035 0.470804
v -0.893038 2.443661 0.369908
v -0.615135 2.282880 0.254797
v -0.313593 2.183872 0.129894
v -0.332909 5.596741 0.066220
v -0.653024 5.497733 0.129894
v -0.948043 5.336952 0.188577
v -1.206631 5.120577 0.240014
v -1.418848 4.856924 0.282226
v -1.576539 4.556124 0.313593
v -1.673645 4.229737 0.332908
v -1.706433 3.890306 0.339430
v -1.673645 3.550875 0.332908
v -1.576539 3.224488 0.313593
v -1.418848 2.923689 0.282226
v -1.206631 2.660035 0.240014
v -0.948043 2.443661 0.188577
v -0.653024 2.282880 0.129894
v -0.332909 2.183872 0.066220
v -0.339431 5.596741 -0.000000
v -0.665817 5.497733 -0.000000
v -0.966617 5.336952 -0.000000
v -1.230271 5.120577 -0.000000
v -1.446645 4.856924 -0.000000
v -1.607426 4.556124 -0.000000
v -1.706434 4.229737 -0.000000
v -1.739864 3.890306 -0.000001
v -1.706434 3.550875 -0.000000
v -1.607426 3.224488 -0.000000
v -1.446645 2.923689 -0.000000
v -1.230271 2.660035 -0.000000
v -0.966617 2.443661 -0.000000
v -0.665817 2.282880 -0.000000
v -0.339431 2.183872 -0.000000
v -0.332909 5.596741 -0.066220
v -0.653024 5.497733 -0.129895
v -0.948043 5.336952 -0.188578
v -1.206631 5.120577 -0.240014
v -1.418848 4.856924 -0.282227
v -1.576539 4.556124 -0.313593
v -1.673645 4.229737 -0.332909
v -1.706433 3.890306 -0.339431
v -1.673645 3.550875 -0.332909
v -1.576539 3.224488 -0.313593
v -1.418848 2.923689 -0.282227
v -1.206631 2.660035 -0.240014
v -0.948043 2.443661 -0.188578
v -0.653024 2.282880 -0.129895
v -0.332909 2.183872 -0.066220
v -0.313593 5.596741 -0.129894
v -0.615135 5.497733 -0.254797
v -0.893037 5.336952 -0.369908
v -1.136622 5.120577 -0.470804
v -1.336525 4.856924 -0.553607
v -1.485067 4.556124 -0.615135
v -1.576539 4.229737 -0.653024
v -1.607424 3.890306 -0.665818
v -1.576539 3.550875 -0.653024
v -1.485067 3.224488 -0.615135
v -1.336525 2.923689 -0.553607
v -1.136622 2.660035 -0.470804
v -0.893037 2.443661 -0.369908
v -0.615135 2.282880 -0.254797
v -0.313593 2.183872 -0.129894
v -0.282226 5.596741 -0.188578
v -0.553607 5.497733 -0.369908
v -0.803712 5.336952 -0.537024
v -1.022932 5.120577 -0.683502
v -1.202841 4.856924 -0.803713
v -1.336525 4.556124 -0.893038
v -1.418847 4.229737 -0.948044
v -1.446643 3.890306 -0.966617
v -1.418847 3.550875 -0.948044
v -1.336525 3.224488 -0.893038
v -1.202841 2.923689 -0.803713
v -1.022932 2.660035 -0.683502
v -0.803712 2.443661 -0.537024
v -0.553607 2.282880 -0.369908
v -0.282226 2.183872 -0.188578
v -0.240014 5.596741 -0.240014
v -0.470804 5.497733 -0.470804
v -0.683501 5.336952 -0.683501
v -0.869933 5.120577 -0.869933
v -1.022932 4.856924 -1.022932
v -1.136621 4.556124 -1.136621
v -1.206630 4.229737 -1.206631
v -1.230269 3.890306 -1.230270
v -1.206630 3.550875 -1.206631
v -1.136621 3.224488 -1.136621
v -1.022932 2.923689 -1.022932
v -0.869933 2.660035 -0.869933
v -0.683501 2.443661 -0.683501
v -0.470804 2.282880 -0.470804
v -0.240014 2.183872 -0.240014
v -0.188578 5.596741 -0.282226
v -0.369908 5.497733 -0.553607
v -0.537023 5.336952 -0.803712
v -0.683501 5.120577 -1.022932
v -0.803712 4.856924 -1.202841
v -0.893038 4.556124 -1.336525
v -0.948043 4.229737 -1.418848
v -0.966616 3.890306 -1.446644
v -0.948043 3.550875 -1.418848
v -0.893038 3.224488 -1.336525
v -0.803712 2.923689 -1.202841
v -0.683501 2.660035 -1.022932
v -0.537023 2.443661 -0.803712
v -0.369908 2.282880 -0.553607
v -0.188578 2.183872 -0.282226
v -0.129894 5.596741 -0.313593
v -0.254797 5.497733 -0.615135
v -0.369908 5.336952 -0.893037
v -0.470804 5.120577 -1.136622
v -0.553606 4.856924 -1.336525
v -0.615135 4.556124 -1.485067
v -0.653023 4.229737 -1.576539
v -0.665816 3.890306 -1.607424
v -0.653023 3.550875 -1.576539
v -0.615135 3.224488 -1.485067
v -0.553606 2.923689 -1.336525
v -0.470804 2.660035 -1.136622
v -0.369908 2.443661 -0.893037
v -0.254797 2.282880 -0.615135
v -0.129894 2.183872 -0.313593
v -0.066220 5.596741 -0.332908
v -0.129894 5.497733 -0.653024
v -0.188577 5.336952 -0.948043
v -0.240014 5.120577 -1.206631
v -0.282226 4.856924 -1.418847
v -0.313593 4.556124 -1.576539
v -0.332908 4.229737 -1.673645
v -0.339430 3.890306 -1.706433
v -0.332908 3.550875 -1.673645
v -0.313593 3.224488 -1.576539
v -0.282226 2.923689 -1.418847
v -0.240014 2.660035 -1.206631
v -0.188577 2.443661 -0.948043
v -0.129894 2.282880 -0.653024
v -0.066220 2.183872 -0.332908
v 0.000000 5.596741 -0.339431
v 0.000000 5.497733 -0.665817
v 0.000000 5.120577 -1.230270
v 0.000000 4.556124 -1.607425
v 0.000000 3.224488 -1.607425
v 0.000000 2.660035 -1.230270
v 0.000000 2.443661 -0.966616
v 0.000000 2.282880 -0.665817
v 0.000000 2.183872 -0.339431
vn 0.0893 -0.0000 -0.9960
vn 0.2661 -0.0000 -0.9639
vn 0.4374 -0.0000 -0.8993
vn 0.5984 -0.0000 -0.8012
vn 0.7426 -0.0000 -0.6697
vn 0.8623 -0.0000 -0.5065
vn 0.9487 -0.0000 -0.3162
vn 0.9942 -0.0000 -0.1076
vn 0.9942 -0.0000 0.1076
vn 0.9487 -0.0000 0.3162
vn 0.8623 -0.0000 0.5065
vn 0.7426 -0.0000 0.6697
vn 0.5984 -0.0000 0.8012
vn 0.4374 -0.0000 0.8993
vn 0.2661 -0.0000 0.9639
vn 0.0893 -0.0000 0.9960
vn -0.0893 -0.0000 0.9960
vn -0.2661 -0.0000 0.9639
vn -0.4374 -0.0000 0.8993
vn -0.5984 -0.0000 0.8012
vn -0.7426 -0.0000 0.6697
vn -0.8623 -0.0000 0.5065
vn -0.9487 -0.0000 0.3162
vn -0.9942 -0.0000 0.1076
vn -0.9942 -0.0000 -0.1076
vn -0.9487 -0.0000 -0.3162
vn -0.8623 -0.0000 -0.5065
vn -0.7426 -0.0000 -0.6697
vn -0.5984 -0.0000 -0.8012
vn -0.4374 -0.0000 -0.8993
vn -0.0000 1.0000 -0.0000
vn -0.2661 -0.0000 -0.9639
vn -0.0893 -0.0000 -0.9960
vn -0.0000 -1.0000 -0.0000
vn -0.0000 0.8241 -0.5664
vn -0.0000 0.9197 -0.3926
vn 0.0768 0.9197 -0.3849
vn 0.1107 0.8241 -0.5554
vn -0.0000 -0.5383 -0.8428
vn -0.0000 -0.3563 -0.9344
vn 0.1828 -0.3563 -0.9163
vn 0.1648 -0.5383 -0.8265
vn -0.0000 0.6956 -0.7185
vn 0.1405 0.6956 -0.7046
vn -0.0000 -0.6956 -0.7185
vn 0.1405 -0.6956 -0.7046
vn -0.0000 0.5383 -0.8428
vn 0.1648 0.5383 -0.8265
vn -0.0000 -0.8241 -0.5664
vn 0.1107 -0.8242 -0.5554
vn -0.0000 0.3563 -0.9344
vn 0.1828 0.3563 -0.9163
vn -0.0000 -0.9197 -0.3926
vn 0.0768 -0.9197 -0.3849
vn -0.0000 0.1517 -0.9884
vn 0.1932 0.1518 -0.9693
vn -0.0000 -0.9791 -0.2036
vn 0.0399 -0.9791 -0.1996
vn -0.0000 -0.0000 -1.0000
vn 0.1932 -0.0000 -0.9812
vn -0.0000 0.9791 -0.2036
vn 0.0399 0.9791 -0.1996
vn -0.0000 -0.1517 -0.9884
vn 0.1932 -0.1518 -0.9693
vn 0.0782 0.9791 -0.1877
vn 0.1506 0.9198 -0.3623
vn 0.3790 -0.1520 -0.9128
vn 0.3584 -0.3565 -0.8628
vn 0.2171 0.8242 -0.5230
vn 0.3231 -0.5384 -0.7783
vn 0.2754 0.6957 -0.6634
vn 0.2754 -0.6957 -0.6634
vn 0.3231 0.5384 -0.7783
vn 0.2171 -0.8242 -0.5230
vn 0.3584 0.3565 -0.8628
vn 0.1506 -0.9198 -0.3623
vn 0.3790 0.1520 -0.9128
vn 0.0782 -0.9791 -0.1877
vn 0.3794 -0.0000 -0.9252
vn 0.4688 0.5386 -0.7001
vn 0.5200 0.3567 -0.7761
vn 0.3150 -0.8243 -0.4703
vn 0.2184 -0.9199 -0.3258
vn 0.5499 0.1524 -0.8212
vn 0.1133 -0.9791 -0.1686
vn 0.5517 -0.0000 -0.8340
vn 0.1133 0.9791 -0.1686
vn 0.5499 -0.1524 -0.8212
vn 0.2184 0.9199 -0.3258
vn 0.5200 -0.3567 -0.7761
vn 0.3150 0.8243 -0.4703
vn 0.4688 -0.5386 -0.7001
vn 0.3996 0.6959 -0.5967
vn 0.3996 -0.6959 -0.5967
vn 0.6995 -0.1529 -0.6981
vn 0.6614 -0.3569 -0.6596
vn 0.2776 0.9200 -0.2767
vn 0.4006 0.8245 -0.3997
vn 0.5964 -0.5388 -0.5950
vn 0.5083 0.6960 -0.5072
vn 0.5083 -0.6960 -0.5072
vn 0.5964 0.5388 -0.5950
vn 0.4006 -0.8245 -0.3997
vn 0.6614 0.3569 -0.6596
vn 0.2776 -0.9200 -0.2767
vn 0.6995 0.1529 -0.6981
vn 0.1439 -0.9792 -0.1431
vn 0.7036 -0.0000 -0.7106
vn 0.1439 0.9792 -0.1431
vn 0.4707 -0.8246 -0.3138
vn 0.3261 -0.9201 -0.2172
vn 0.7773 0.3572 -0.5180
vn 0.8222 0.1533 -0.5482
vn 0.1689 -0.9792 -0.1122
vn 0.8289 -0.0000 -0.5593
vn 0.1689 0.9792 -0.1122
vn 0.8222 -0.1533 -0.5482
vn 0.3261 0.9201 -0.2172
vn 0.7773 -0.3572 -0.5180
vn 0.4707 0.8246 -0.3138
vn 0.7009 -0.5390 -0.4672
vn 0.5973 0.6962 -0.3982
vn 0.5973 -0.6962 -0.3982
vn 0.7009 0.5390 -0.4672
vn 0.3620 0.9201 -0.1495
vn 0.5227 0.8247 -0.2160
vn 0.8632 -0.3573 -0.3566
vn 0.7784 -0.5391 -0.3217
vn 0.6633 0.6963 -0.2742
vn 0.6633 -0.6963 -0.2742
vn 0.7784 0.5391 -0.3217
vn 0.5227 -0.8247 -0.2160
vn 0.8632 0.3573 -0.3566
vn 0.3620 -0.9201 -0.1495
vn 0.9132 0.1536 -0.3775
vn 0.1873 -0.9793 -0.0771
vn 0.9226 -0.0000 -0.3859
vn 0.1873 0.9793 -0.0771
vn 0.9132 -0.1536 -0.3775
vn 0.9161 0.3575 -0.1817
vn 0.9692 0.1538 -0.1924
vn 0.3840 -0.9202 -0.0761
vn 0.1986 -0.9793 -0.0393
vn 0.9804 -0.0000 -0.1969
vn 0.1986 0.9793 -0.0393
vn 0.9692 -0.1538 -0.1924
vn 0.3840 0.9202 -0.0761
vn 0.9161 -0.3575 -0.1817
vn 0.5547 0.8248 -0.1101
vn 0.8260 -0.5392 -0.1639
vn 0.7039 0.6964 -0.1397
vn 0.7039 -0.6964 -0.1397
vn 0.8260 0.5392 -0.1639
vn 0.5547 -0.8248 -0.1101
vn 0.9339 -0.3575 -0.0000
vn 0.8421 -0.5393 -0.0000
vn 0.5655 0.8248 -0.0000
vn 0.7176 0.6964 -0.0000
vn 0.7176 -0.6964 -0.0000
vn 0.8421 0.5393 -0.0000
vn 0.5655 -0.8248 -0.0000
vn 0.9339 0.3575 -0.0000
vn 0.3915 -0.9202 -0.0000
vn 0.9881 0.1539 -0.0000
vn 0.2024 -0.9793 -0.0000
vn 1.0000 -0.0000 -0.0000
vn 0.2024 0.9793 -0.0000
vn 0.9881 -0.1539 -0.0000
vn 0.3915 0.9202 -0.0000
vn 0.3840 -0.9202 0.0761
vn 0.1986 -0.9793 0.0393
vn 0.9692 0.1538 0.1924
vn 0.9804 -0.0000 0.1969
vn 0.1986 0.9793 0.0393
vn 0.9692 -0.1538 0.1924
vn 0.3840 0.9202 0.0761
vn 0.9161 -0.3575 0.1817
vn 0.5547 0.8248 0.1101
vn 0.8260 -0.5392 0.1639
vn 0.7039 0.6964 0.1397
vn 0.7039 -0.6964 0.1397
vn 0.8260 0.5392 0.1639
vn 0.5547 -0.8248 0.1101
vn 0.9161 0.3575 0.1817
vn 0.7784 -0.5391 0.3217
vn 0.6633 -0.6963 0.2742
vn 0.6633 0.6963 0.2742
vn 0.7784 0.5391 0.3217
vn 0.5227 -0.8247 0.2160
vn 0.8632 0.3573 0.3566
vn 0.3620 -0.9201 0.1495
vn 0.9132 0.1536 0.3775
vn 0.1873 -0.9793 0.0771
vn 0.9226 -0.0000 0.3859
vn 0.1873 0.9793 0.0771
vn 0.9132 -0.1536 0.3775
vn 0.3620 0.9201 0.1495
vn 0.8632 -0.3573 0.3566
vn 0.5227 0.8247 0.2160
vn 0.1689 0.9792 0.1122
vn 0.1689 -0.9792 0.1122
vn 0.8289 -0.0000 0.5593
vn 0.8222 -0.1533 0.5482
vn 0.3261 0.9201 0.2172
vn 0.7773 -0.3572 0.5180
vn 0.4707 0.8246 0.3138
vn 0.7009 -0.5390 0.4672
vn 0.5973 0.6962 0.3982
vn 0.5973 -0.6962 0.3982
vn 0.7009 0.5390 0.4672
vn 0.4707 -0.8246 0.3138
vn 0.7773 0.3572 0.5180
vn 0.3261 -0.9201 0.2172
vn 0.8222 0.1533 0.5482
vn 0.5083 0.6960 0.5072
vn 0.5964 0.5388 0.5950
vn 0.5083 -0.6960 0.5072
vn 0.4006 -0.8245 0.3997
vn 0.6614 0.3569 0.6596
vn 0.2776 -0.9200 0.2767
vn 0.6995 0.1529 0.6981
vn 0.1439 -0.9792 0.1431
vn 0.7036 -0.0000 0.7106
vn 0.1439 0.9792 0.1431
vn 0.6995 -0.1529 0.6981
vn 0.2776 0.9200 0.2767
vn 0.6614 -0.3569 0.6596
vn 0.4006 0.8245 0.3997
vn 0.5964 -0.5388 0.5950
vn 0.5517 -0.0000 0.8340
vn 0.5499 -0.1524 0.8212
vn 0.1133 0.9791 0.1686
vn 0.2184 0.9199 0.3258
vn 0.5200 -0.3567 0.7761
vn 0.3150 0.8243 0.4703
vn 0.4688 -0.5386 0.7001
vn 0.3996 0.6959 0.5967
vn 0.3996 -0.6959 0.5967
vn 0.4688 0.5386 0.7001
vn 0.3150 -0.8243 0.4703
vn 0.5200 0.3567 0.7761
vn 0.2184 -0.9199 0.3258
vn 0.5499 0.1524 0.8212
vn 0.1133 -0.9791 0.1686
vn 0.2754 -0.6957 0.6634
vn 0.2171 -0.8242 0.5230
vn 0.3231 0.5384 0.7783
vn 0.3584 0.3565 0.8628
vn 0.1506 -0.9198 0.3623
vn 0.3790 0.1520 0.9128
vn 0.0782 -0.9791 0.1877
vn 0.3794 -0.0000 0.9252
vn 0.0782 0.9791 0.1877
vn 0.3790 -0.1520 0.9128
vn 0.1506 0.9198 0.3623
vn 0.3584 -0.3565 0.8628
vn 0.2171 0.8242 0.5230
vn 0.3231 -0.5384 0.7783
vn 0.2754 0.6957 0.6634
vn 0.0399 0.9791 0.1996
vn 0.0768 0.9197 0.3849
vn 0.1932 -0.1518 0.9693
vn 0.1828 -0.3563 0.9163
vn 0.1107 0.8242 0.5554
vn 0.1648 -0.5383 0.8265
vn 0.1405 0.6956 0.7046
vn 0.1405 -0.6956 0.7046
vn 0.1648 0.5383 0.8265
vn 0.1107 -0.8242 0.5554
vn 0.1828 0.3563 0.9163
vn 0.0768 -0.9197 0.3849
vn 0.1932 0.1518 0.9693
vn 0.0399 -0.9791 0.1996
vn 0.1932 -0.0000 0.9812
vn -0.0000 0.5383 0.8428
vn -0.0000 0.3563 0.9344
vn -0.0000 -0.8241 0.5664
vn -0.0000 -0.9197 0.3926
vn -0.0000 0.1517 0.9884
vn -0.0000 -0.9791 0.2036
vn -0.0000 -0.0000 1.0000
vn -0.0000 0.9791 0.2036
vn -0.0000 -0.1517 0.9884
vn -0.0000 0.9197 0.3926
vn -0.0000 -0.3563 0.9344
vn -0.0000 0.8241 0.5664
vn -0.0000 -0.5383 0.8428
vn -0.0000 0.6956 0.7185
vn -0.0000 -0.6956 0.7185
vn -0.1932 -0.1518 0.9693
vn -0.1828 -0.3563 0.9163
vn -0.0768 0.9197 0.3849
vn -0.1108 0.8242 0.5554
vn -0.1648 -0.5383 0.8265
vn -0.1405 0.6956 0.7046
vn -0.1405 -0.6956 0.7046
vn -0.1648 0.5383 0.8265
vn -0.1107 -0.8242 0.5554
vn -0.1828 0.3563 0.9163
vn -0.0768 -0.9197 0.3849
vn -0.1932 0.1518 0.9693
vn -0.0399 -0.9791 0.1996
vn -0.1932 -0.0000 0.9812
vn -0.0399 0.9791 0.1996
vn -0.2171 -0.8242 0.5230
vn -0.1506 -0.9198 0.3623
vn -0.3584 0.3565 0.8628
vn -0.3790 0.1520 0.9128
vn -0.0782 -0.9791 0.1877
vn -0.3794 -0.0000 0.9252
vn -0.0782 0.9791 0.1877
vn -0.3790 -0.1520 0.9128
vn -0.1506 0.9198 0.3623
vn -0.3584 -0.3565 0.8628
vn -0.2171 0.8242 0.5230
vn -0.3231 -0.5384 0.7783
vn -0.2754 0.6957 0.6634
vn -0.2754 -0.6957 0.6634
vn -0.3231 0.5384 0.7783
vn -0.5200 -0.3567 0.7761
vn -0.4688 -0.5386 0.7001
vn -0.3150 0.8243 0.4703
vn -0.3996 0.6959 0.5967
vn -0.3996 -0.6959 0.5967
vn -0.4688 0.5386 0.7001
vn -0.3150 -0.8243 0.4703
vn -0.5200 0.3567 0.7761
vn -0.2184 -0.9199 0.3258
vn -0.5499 0.1524 0.8212
vn -0.1133 -0.9791 0.1686
vn -0.5517 -0.0000 0.8340
vn -0.1133 0.9791 0.1686
vn -0.5499 -0.1524 0.8212
vn -0.2184 0.9199 0.3258
vn -0.2776 -0.9200 0.2767
vn -0.1439 -0.9792 0.1431
vn -0.6995 0.1529 0.6981
vn -0.7036 -0.0000 0.7106
vn -0.1439 0.9792 0.1431
vn -0.6995 -0.1529 0.6981
vn -0.2776 0.9200 0.2767
vn -0.6614 -0.3569 0.6596
vn -0.4006 0.8245 0.3997
vn -0.5964 -0.5388 0.5950
vn -0.5083 0.6960 0.5072
vn -0.5083 -0.6960 0.5072
vn -0.5964 0.5388 0.5950
vn -0.4006 -0.8245 0.3997
vn -0.6614 0.3569 0.6596
vn -0.4707 0.8246 0.3138
vn -0.5973 0.6962 0.3982
vn -0.7009 -0.5390 0.4672
vn -0.5973 -0.6962 0.3982
vn -0.7009 0.5390 0.4672
vn -0.4707 -0.8246 0.3138
vn -0.7773 0.3572 0.5180
vn -0.3261 -0.9201 0.2172
vn -0.8222 0.1533 0.5482
vn -0.1689 -0.9792 0.1122
vn -0.8289 -0.0000 0.5593
vn -0.1689 0.9792 0.1122
vn -0.8222 -0.1533 0.5482
vn -0.3261 0.9201 0.2172
vn -0.7773 -0.3572 0.5180
vn -0.9132 0.1536 0.3775
vn -0.9226 -0.0000 0.3859
vn -0.1873 0.9793 0.0771
vn -0.1873 -0.9793 0.0771
vn -0.9132 -0.1536 0.3775
vn -0.3620 0.9201 0.1495
vn -0.8632 -0.3573 0.3566
vn -0.5227 0.8247 0.2160
vn -0.7784 -0.5391 0.3217
vn -0.6633 0.6963 0.2742
vn -0.6633 -0.6963 0.2742
vn -0.7784 0.5391 0.3217
vn -0.5227 -0.8247 0.2160
vn -0.8632 0.3573 0.3566
vn -0.3620 -0.9201 0.1495
vn -0.8260 -0.5392 0.1639
vn -0.7039 -0.6964 0.1397
vn -0.7039 0.6964 0.1397
vn -0.8260 0.5392 0.1639
vn -0.5547 -0.8248 0.1101
vn -0.9161 0.3575 0.1817
vn -0.3840 -0.9202 0.0761
vn -0.9692 0.1538 0.1924
vn -0.1986 -0.9793 0.0393
vn -0.9804 -0.0000 0.1969
vn -0.1986 0.9793 0.0393
vn -0.9692 -0.1538 0.1924
vn -0.3840 0.9202 0.0761
vn -0.9161 -0.3575 0.1817
vn -0.5547 0.8248 0.1101
vn -0.2024 0.9793 -0.0000
vn -0.2024 -0.9793 -0.0000
vn -1.0000 -0.0000 -0.0000
vn -0.9881 -0.1539 -0.0000
vn -0.3915 0.9202 -0.0000
vn -0.9339 -0.3575 -0.0000
vn -0.5655 0.8248 -0.0000
vn -0.8421 -0.5393 -0.0000
vn -0.7176 0.6964 -0.0000
vn -0.7176 -0.6964 -0.0000
vn -0.8421 0.5393 -0.0000
vn -0.5655 -0.8248 -0.0000
vn -0.9339 0.3575 -0.0000
vn -0.3915 -0.9202 -0.0000
vn -0.9881 0.1539 -0.0000
vn -0.7039 0.6964 -0.1397
vn -0.8260 0.5392 -0.1639
vn -0.7039 -0.6964 -0.1397
vn -0.5547 -0.8248 -0.1101
vn -0.9161 0.3575 -0.1817
vn -0.3840 -0.9202 -0.0761
vn -0.9692 0.1538 -0.1924
vn -0.1986 -0.9793 -0.0393
vn -0.9804 -0.0000 -0.1969
vn -0.1986 0.9793 -0.0393
vn -0.9692 -0.1538 -0.1924
vn -0.3840 0.9202 -0.0761
vn -0.9161 -0.3575 -0.1817
vn -0.5547 0.8248 -0.1101
vn -0.8260 -0.5392 -0.1639
vn -0.9226 -0.0000 -0.3859
vn -0.9132 -0.1536 -0.3775
vn -0.1873 0.9793 -0.0771
vn -0.3620 0.9201 -0.1495
vn -0.8632 -0.3573 -0.3566
vn -0.5227 0.8247 -0.2160
vn -0.7784 -0.5391 -0.3217
vn -0.6633 0.6963 -0.2742
vn -0.6633 -0.6963 -0.2742
vn -0.7784 0.5391 -0.3217
vn -0.5227 -0.8247 -0.2160
vn -0.8632 0.3573 -0.3566
vn -0.3620 -0.9201 -0.1495
vn -0.9132 0.1536 -0.3775
vn -0.1873 -0.9793 -0.0771
vn -0.5973 -0.6962 -0.3982
vn -0.4707 -0.8246 -0.3138
vn -0.7009 0.5390 -0.4672
vn -0.7773 0.3572 -0.5180
vn -0.3261 -0.9201 -0.2172
vn -0.8222 0.1533 -0.5482
vn -0.1689 -0.9792 -0.1122
vn -0.8289 -0.0000 -0.5593
vn -0.1689 0.9792 -0.1122
vn -0.8222 -0.1533 -0.5482
vn -0.3261 0.9201 -0.2172
vn -0.7773 -0.3572 -0.5180
vn -0.4707 0.8246 -0.3138
vn -0.7009 -0.5390 -0.4672
vn -0.5973 0.6962 -0.3982
vn -0.6995 -0.1529 -0.6981
vn -0.6614 -0.3569 -0.6596
vn -0.2776 0.9200 -0.2767
vn -0.4006 0.8245 -0.3997
vn -0.5964 -0.5388 -0.5950
vn -0.5083 0.6960 -0.5072
vn -0.5083 -0.6960 -0.5072
vn -0.5964 0.5388 -0.5950
vn -0.4006 -0.8245 -0.3997
vn -0.6614 0.3569 -0.6596
vn -0.2776 -0.9200 -0.2767
vn -0.6995 0.1529 -0.6981
vn -0.1439 -0.9792 -0.1431
vn -0.7036 -0.0000 -0.7106
vn -0.1439 0.9792 -0.1431
vn -0.3150 -0.8243 -0.4703
vn -0.2184 -0.9199 -0.3258
vn -0.5200 0.3567 -0.7761
vn -0.5499 0.1524 -0.8212
vn -0.1133 -0.9791 -0.1686
vn -0.5517 -0.0000 -0.8340
vn -0.1133 0.9791 -0.1686
vn -0.5499 -0.1524 -0.8212
vn -0.2184 0.9199 -0.3258
vn -0.5200 -0.3567 -0.7761
vn -0.3150 0.8243 -0.4703
vn -0.4688 -0.5386 -0.7001
vn -0.3996 0.6959 -0.5967
vn -0.3996 -0.6959 -0.5967
vn -0.4688 0.5386 -0.7001
vn -0.1506 0.9198 -0.3623
vn -0.2171 0.8242 -0.5230
vn -0.3584 -0.3565 -0.8628
vn -0.3231 -0.5384 -0.7783
vn -0.2754 0.6957 -0.6634
vn -0.2754 -0.6957 -0.6634
vn -0.3231 0.5384 -0.7783
vn -0.2171 -0.8242 -0.5230
vn -0.3584 0.3565 -0.8628
vn -0.1506 -0.9198 -0.3623
vn -0.3790 0.1520 -0.9128
vn -0.0782 -0.9791 -0.1877
vn -0.3794 -0.0000 -0.9252
vn -0.0782 0.9791 -0.1877
vn -0.3790 -0.1520 -0.9128
vn -0.1828 0.3563 -0.9163
vn -0.1932 0.1518 -0.9693
vn -0.0768 -0.9197 -0.3849
vn -0.0399 -0.9791 -0.1996
vn -0.1932 -0.0000 -0.9812
vn -0.0399 0.9791 -0.1996
vn -0.1932 -0.1518 -0.9693
vn -0.0768 0.9197 -0.3849
vn -0.1828 -0.3563 -0.9163
vn -0.1108 0.8242 -0.5554
vn -0.1648 -0.5383 -0.8265
vn -0.1405 0.6956 -0.7046
vn -0.1405 -0.6956 -0.7046
vn -0.1648 0.5383 -0.8265
vn -0.1107 -0.8242 -0.5554
vt 1.000000 0.500000
vt 1.000000 1.000000
vt 0.968750 1.000000
vt 0.968750 0.500000
vt 0.937500 1.000000
vt 0.937500 0.500000
vt 0.906250 1.000000
vt 0.906250 0.500000
vt 0.875000 1.000000
vt 0.875000 0.500000
vt 0.843750 1.000000
vt 0.843750 0.500000
vt 0.812500 1.000000
vt 0.812500 0.500000
vt 0.781250 1.000000
vt 0.781250 0.500000
vt 0.750000 1.000000
vt 0.750000 0.500000
vt 0.718750 1.000000
vt 0.718750 0.500000
vt 0.687500 1.000000
vt 0.687500 0.500000
vt 0.656250 1.000000
vt 0.656250 0.500000
vt 0.625000 1.000000
vt 0.625000 0.500000
vt 0.593750 1.000000
vt 0.593750 0.500000
vt 0.562500 1.000000
vt 0.562500 0.500000
vt 0.531250 1.000000
vt 0.531250 0.500000
vt 0.500000 1.000000
vt 0.500000 0.500000
vt 0.468750 1.000000
vt 0.468750 0.500000
vt 0.437500 1.000000
vt 0.437500 0.500000
vt 0.406250 1.000000
vt 0.406250 0.500000
vt 0.375000 1.000000
vt 0.375000 0.500000
vt 0.343750 1.000000
vt 0.343750 0.500000
vt 0.312500 1.000000
vt 0.312500 0.500000
vt 0.281250 1.000000
vt 0.281250 0.500000
vt 0.250000 1.000000
vt 0.250000 0.500000
vt 0.218750 1.000000
vt 0.218750 0.500000
vt 0.187500 1.000000
vt 0.187500 0.500000
vt 0.156250 1.000000
vt 0.156250 0.500000
vt 0.125000 1.000000
vt 0.125000 0.500000
vt 0.093750 1.000000
vt 0.093750 0.500000
vt 0.062500 1.000000
vt 0.062500 0.500000
vt 0.296822 0.485388
vt 0.250000 0.490000
vt 0.203178 0.485388
vt 0.158156 0.471731
vt 0.116663 0.449553
vt 0.080294 0.419706
vt 0.050447 0.383337
vt 0.028269 0.341844
vt 0.014612 0.296822
vt 0.010000 0.250000
vt 0.014612 0.203178
vt 0.028269 0.158156
vt 0.050447 0.116663
vt 0.080294 0.080294
vt 0.116663 0.050447
vt 0.158156 0.028269
vt 0.203178 0.014612
vt 0.250000 0.010000
vt 0.296822 0.014612
vt 0.341844 0.028269
vt 0.383337 0.050447
vt 0.419706 0.080294
vt 0.449553 0.116663
vt 0.471731 0.158156
vt 0.485388 0.203178
vt 0.490000 0.250000
vt 0.485388 0.296822
vt 0.471731 0.341844
vt 0.449553 0.383337
vt 0.419706 0.419706
vt 0.383337 0.449553
vt 0.341844 0.471731
vt 0.031250 1.000000
vt 0.031250 0.500000
vt 0.000000 1.000000
vt 0.000000 0.500000
vt 0.750000 0.490000
vt 0.796822 0.485388
vt 0.841844 0.471731
vt 0.883337 0.449553
vt 0.919706 0.419706
vt 0.949553 0.383337
vt 0.971731 0.341844
vt 0.985388 0.296822
vt 0.990000 0.250000
vt 0.985388 0.203178
vt 0.971731 0.158156
vt 0.949553 0.116663
vt 0.919706 0.080294
vt 0.883337 0.050447
vt 0.841844 0.028269
vt 0.796822 0.014612
vt 0.750000 0.010000
vt 0.703178 0.014612
vt 0.658156 0.028269
vt 0.616663 0.050447
vt 0.580294 0.080294
vt 0.550447 0.116663
vt 0.528269 0.158156
vt 0.514612 0.203178
vt 0.510000 0.250000
vt 0.514612 0.296822
vt 0.528269 0.341844
vt 0.550447 0.383337
vt 0.580294 0.419706
vt 0.616663 0.449553
vt 0.658156 0.471731
vt 0.703178 0.485388
vt 0.750000 0.812500
vt 0.750000 0.875000
vt 0.718750 0.875000
vt 0.718750 0.812500
vt 0.750000 0.312500
vt 0.750000 0.375000
vt 0.718750 0.375000
vt 0.718750 0.312500
vt 0.750000 0.750000
vt 0.718750 0.750000
vt 0.750000 0.250000
vt 0.718750 0.250000
vt 0.750000 0.687500
vt 0.718750 0.687500
vt 0.750000 0.187500
vt 0.718750 0.187500
vt 0.750000 0.625000
vt 0.718750 0.625000
vt 0.750000 0.125000
vt 0.718750 0.125000
vt 0.750000 0.562500
vt 0.718750 0.562500
vt 0.750000 0.062500
vt 0.718750 0.062500
vt 0.750000 0.937500
vt 0.734375 1.000000
vt 0.718750 0.937500
vt 0.734375 0.000000
vt 0.750000 0.437500
vt 0.718750 0.437500
vt 0.687500 0.937500
vt 0.687500 0.875000
vt 0.687500 0.437500
vt 0.687500 0.375000
vt 0.687500 0.812500
vt 0.687500 0.312500
vt 0.687500 0.750000
vt 0.687500 0.250000
vt 0.687500 0.687500
vt 0.687500 0.187500
vt 0.687500 0.625000
vt 0.687500 0.125000
vt 0.687500 0.562500
vt 0.687500 0.062500
vt 0.703125 1.000000
vt 0.703125 0.000000
vt 0.656250 0.687500
vt 0.656250 0.625000
vt 0.656250 0.187500
vt 0.656250 0.125000
vt 0.656250 0.562500
vt 0.656250 0.062500
vt 0.671875 1.000000
vt 0.656250 0.937500
vt 0.671875 0.000000
vt 0.656250 0.437500
vt 0.656250 0.875000
vt 0.656250 0.375000
vt 0.656250 0.812500
vt 0.656250 0.312500
vt 0.656250 0.750000
vt 0.656250 0.250000
vt 0.625000 0.437500
vt 0.625000 0.375000
vt 0.625000 0.875000
vt 0.625000 0.812500
vt 0.625000 0.312500
vt 0.625000 0.750000
vt 0.625000 0.250000
vt 0.625000 0.687500
vt 0.625000 0.187500
vt 0.625000 0.625000
vt 0.625000 0.125000
vt 0.625000 0.562500
vt 0.625000 0.062500
vt 0.640625 1.000000
vt 0.625000 0.937500
vt 0.640625 0.000000
vt 0.593750 0.187500
vt 0.593750 0.125000
vt 0.593750 0.625000
vt 0.593750 0.562500
vt 0.593750 0.062500
vt 0.609375 1.000000
vt 0.593750 0.937500
vt 0.609375 0.000000
vt 0.593750 0.437500
vt 0.593750 0.875000
vt 0.593750 0.375000
vt 0.593750 0.812500
vt 0.593750 0.312500
vt 0.593750 0.750000
vt 0.593750 0.250000
vt 0.593750 0.687500
vt 0.562500 0.875000
vt 0.562500 0.812500
vt 0.562500 0.375000
vt 0.562500 0.312500
vt 0.562500 0.750000
vt 0.562500 0.250000
vt 0.562500 0.687500
vt 0.562500 0.187500
vt 0.562500 0.625000
vt 0.562500 0.125000
vt 0.562500 0.562500
vt 0.562500 0.062500
vt 0.578125 1.000000
vt 0.562500 0.937500
vt 0.578125 0.000000
vt 0.562500 0.437500
vt 0.531250 0.625000
vt 0.531250 0.562500
vt 0.531250 0.125000
vt 0.531250 0.062500
vt 0.546875 1.000000
vt 0.531250 0.937500
vt 0.546875 0.000000
vt 0.531250 0.437500
vt 0.531250 0.875000
vt 0.531250 0.375000
vt 0.531250 0.812500
vt 0.531250 0.312500
vt 0.531250 0.750000
vt 0.531250 0.250000
vt 0.531250 0.687500
vt 0.531250 0.187500
vt 0.500000 0.375000
vt 0.500000 0.312500
vt 0.500000 0.812500
vt 0.500000 0.750000
vt 0.500000 0.250000
vt 0.500000 0.687500
vt 0.500000 0.187500
vt 0.500000 0.625000
vt 0.500000 0.125000
vt 0.500000 0.562500
vt 0.500000 0.062500
vt 0.500000 0.500000
vt 0.515625 1.000000
vt 0.500000 0.937500
vt 0.515625 0.000000
vt 0.500000 0.437500
vt 0.500000 0.875000
vt 0.468750 0.125000
vt 0.468750 0.062500
vt 0.468750 0.562500
vt 0.468750 0.500000
vt 0.484375 1.000000
vt 0.468750 0.937500
vt 0.484375 0.000000
vt 0.468750 0.437500
vt 0.468750 0.875000
vt 0.468750 0.375000
vt 0.468750 0.812500
vt 0.468750 0.312500
vt 0.468750 0.750000
vt 0.468750 0.250000
vt 0.468750 0.687500
vt 0.468750 0.187500
vt 0.468750 0.625000
vt 0.437500 0.312500
vt 0.437500 0.250000
vt 0.437500 0.750000
vt 0.437500 0.687500
vt 0.437500 0.187500
vt 0.437500 0.625000
vt 0.437500 0.125000
vt 0.437500 0.562500
vt 0.437500 0.062500
vt 0.437500 0.500000
vt 0.453125 1.000000
vt 0.437500 0.937500
vt 0.453125 0.000000
vt 0.437500 0.437500
vt 0.437500 0.875000
vt 0.437500 0.375000
vt 0.437500 0.812500
vt 0.421875 1.000000
vt 0.406250 0.937500
vt 0.421875 0.000000
vt 0.406250 0.062500
vt 0.406250 0.500000
vt 0.406250 0.437500
vt 0.406250 0.875000
vt 0.406250 0.375000
vt 0.406250 0.812500
vt 0.406250 0.312500
vt 0.406250 0.750000
vt 0.406250 0.250000
vt 0.406250 0.687500
vt 0.406250 0.187500
vt 0.406250 0.625000
vt 0.406250 0.125000
vt 0.406250 0.562500
vt 0.375000 0.750000
vt 0.375000 0.687500
vt 0.375000 0.250000
vt 0.375000 0.187500
vt 0.375000 0.625000
vt 0.375000 0.125000
vt 0.375000 0.562500
vt 0.375000 0.062500
vt 0.375000 0.500000
vt 0.390625 1.000000
vt 0.375000 0.937500
vt 0.390625 0.000000
vt 0.375000 0.437500
vt 0.375000 0.875000
vt 0.375000 0.375000
vt 0.375000 0.812500
vt 0.375000 0.312500
vt 0.343750 0.500000
vt 0.343750 0.437500
vt 0.343750 0.937500
vt 0.343750 0.875000
vt 0.343750 0.375000
vt 0.343750 0.812500
vt 0.343750 0.312500
vt 0.343750 0.750000
vt 0.343750 0.250000
vt 0.343750 0.687500
vt 0.343750 0.187500
vt 0.343750 0.625000
vt 0.343750 0.125000
vt 0.343750 0.562500
vt 0.343750 0.062500
vt 0.359375 1.000000
vt 0.359375 0.000000
vt 0.312500 0.250000
vt 0.312500 0.187500
vt 0.312500 0.687500
vt 0.312500 0.625000
vt 0.312500 0.125000
vt 0.312500 0.562500
vt 0.312500 0.062500
vt 0.312500 0.500000
vt 0.328125 1.000000
vt 0.312500 0.937500
vt 0.328125 0.000000
vt 0.312500 0.437500
vt 0.312500 0.875000
vt 0.312500 0.375000
vt 0.312500 0.812500
vt 0.312500 0.312500
vt 0.312500 0.750000
vt 0.281250 0.937500
vt 0.281250 0.875000
vt 0.281250 0.437500
vt 0.281250 0.375000
vt 0.281250 0.812500
vt 0.281250 0.312500
vt 0.281250 0.750000
vt 0.281250 0.250000
vt 0.281250 0.687500
vt 0.281250 0.187500
vt 0.281250 0.625000
vt 0.281250 0.125000
vt 0.281250 0.562500
vt 0.281250 0.062500
vt 0.281250 0.500000
vt 0.296875 1.000000
vt 0.296875 0.000000
vt 0.250000 0.687500
vt 0.250000 0.625000
vt 0.250000 0.187500
vt 0.250000 0.125000
vt 0.250000 0.562500
vt 0.250000 0.062500
vt 0.250000 0.500000
vt 0.265625 1.000000
vt 0.250000 0.937500
vt 0.265625 0.000000
vt 0.250000 0.437500
vt 0.250000 0.875000
vt 0.250000 0.375000
vt 0.250000 0.812500
vt 0.250000 0.312500
vt 0.250000 0.750000
vt 0.250000 0.250000
vt 0.218750 0.437500
vt 0.218750 0.375000
vt 0.218750 0.875000
vt 0.218750 0.812500
vt 0.218750 0.312500
vt 0.218750 0.750000
vt 0.218750 0.250000
vt 0.218750 0.687500
vt 0.218750 0.187500
vt 0.218750 0.625000
vt 0.218750 0.125000
vt 0.218750 0.562500
vt 0.218750 0.062500
vt 0.218750 0.500000
vt 0.234375 1.000000
vt 0.218750 0.937500
vt 0.234375 0.000000
vt 0.187500 0.187500
vt 0.187500 0.125000
vt 0.187500 0.625000
vt 0.187500 0.562500
vt 0.187500 0.062500
vt 0.187500 0.500000
vt 0.203125 1.000000
vt 0.187500 0.937500
vt 0.203125 0.000000
vt 0.187500 0.437500
vt 0.187500 0.875000
vt 0.187500 0.375000
vt 0.187500 0.812500
vt 0.187500 0.312500
vt 0.187500 0.750000
vt 0.187500 0.250000
vt 0.187500 0.687500
vt 0.156250 0.375000
vt 0.156250 0.312500
vt 0.156250 0.812500
vt 0.156250 0.750000
vt 0.156250 0.250000
vt 0.156250 0.687500
vt 0.156250 0.187500
vt 0.156250 0.625000
vt 0.156250 0.125000
vt 0.156250 0.562500
vt 0.156250 0.062500
vt 0.156250 0.500000
vt 0.171875 1.000000
vt 0.156250 0.937500
vt 0.171875 0.000000
vt 0.156250 0.437500
vt 0.156250 0.875000
vt 0.125000 0.125000
vt 0.125000 0.062500
vt 0.125000 0.562500
vt 0.125000 0.500000
vt 0.140625 1.000000
vt 0.125000 0.937500
vt 0.140625 0.000000
vt 0.125000 0.437500
vt 0.125000 0.875000
vt 0.125000 0.375000
vt 0.125000 0.812500
vt 0.125000 0.312500
vt 0.125000 0.750000
vt 0.125000 0.250000
vt 0.125000 0.687500
vt 0.125000 0.187500
vt 0.125000 0.625000
vt 0.093750 0.812500
vt 0.093750 0.750000
vt 0.093750 0.312500
vt 0.093750 0.250000
vt 0.093750 0.687500
vt 0.093750 0.187500
vt 0.093750 0.625000
vt 0.093750 0.125000
vt 0.093750 0.562500
vt 0.093750 0.062500
vt 0.093750 0.500000
vt 0.109375 1.000000
vt 0.093750 0.937500
vt 0.109375 0.000000
vt 0.093750 0.437500
vt 0.093750 0.875000
vt 0.093750 0.375000
vt 0.062500 0.562500
vt 0.062500 0.500000
vt 0.078125 1.000000
vt 0.062500 0.937500
vt 0.078125 0.000000
vt 0.062500 0.062500
vt 0.062500 0.437500
vt 0.062500 0.875000
vt 0.062500 0.375000
vt 0.062500 0.812500
vt 0.062500 0.312500
vt 0.062500 0.750000
vt 0.062500 0.250000
vt 0.062500 0.687500
vt 0.062500 0.187500
vt 0.062500 0.625000
vt 0.062500 0.125000
vt 0.031250 0.312500
vt 0.031250 0.250000
vt 0.031250 0.750000
vt 0.031250 0.687500
vt 0.031250 0.187500
vt 0.031250 0.625000
vt 0.031250 0.125000
vt 0.031250 0.562500
vt 0.031250 0.062500
vt 0.031250 0.500000
vt 0.046875 1.000000
vt 0.031250 0.937500
vt 0.046875 0.000000
vt 0.031250 0.437500
vt 0.031250 0.875000
vt 0.031250 0.375000
vt 0.031250 0.812500
vt 0.015625 1.000000
vt 0.000000 0.937500
vt 0.015625 0.000000
vt 0.000000 0.062500
vt 0.000000 0.437500
vt 0.000000 0.875000
vt 0.000000 0.375000
vt 0.000000 0.812500
vt 0.000000 0.312500
vt 0.000000 0.750000
vt 0.000000 0.250000
vt 0.000000 0.687500
vt 0.000000 0.187500
vt 0.000000 0.625000
vt 0.000000 0.125000
vt 0.000000 0.562500
vt 1.000000 0.687500
vt 1.000000 0.750000
vt 0.968750 0.750000
vt 0.968750 0.687500
vt 1.000000 0.187500
vt 1.000000 0.250000
vt 0.968750 0.250000
vt 0.968750 0.187500
vt 1.000000 0.625000
vt 0.968750 0.625000
vt 1.000000 0.125000
vt 0.968750 0.125000
vt 1.000000 0.562500
vt 0.968750 0.562500
vt 1.000000 0.062500
vt 0.968750 0.062500
vt 0.968750 0.500000
vt 1.000000 0.937500
vt 0.984375 1.000000
vt 0.968750 0.937500
vt 0.984375 0.000000
vt 1.000000 0.437500
vt 0.968750 0.437500
vt 1.000000 0.875000
vt 0.968750 0.875000
vt 1.000000 0.375000
vt 0.968750 0.375000
vt 1.000000 0.812500
vt 0.968750 0.812500
vt 1.000000 0.312500
vt 0.968750 0.312500
vt 0.937500 0.500000
vt 0.937500 0.437500
vt 0.937500 0.937500
vt 0.937500 0.875000
vt 0.937500 0.375000
vt 0.937500 0.812500
vt 0.937500 0.312500
vt 0.937500 0.750000
vt 0.937500 0.250000
vt 0.937500 0.687500
vt 0.937500 0.187500
vt 0.937500 0.625000
vt 0.937500 0.125000
vt 0.937500 0.562500
vt 0.937500 0.062500
vt 0.953125 1.000000
vt 0.953125 0.000000
vt 0.906250 0.250000
vt 0.906250 0.187500
vt 0.906250 0.687500
vt 0.906250 0.625000
vt 0.906250 0.125000
vt 0.906250 0.562500
vt 0.906250 0.062500
vt 0.906250 0.500000
vt 0.921875 1.000000
vt 0.906250 0.937500
vt 0.921875 0.000000
vt 0.906250 0.437500
vt 0.906250 0.875000
vt 0.906250 0.375000
vt 0.906250 0.812500
vt 0.906250 0.312500
vt 0.906250 0.750000
vt 0.875000 0.437500
vt 0.875000 0.375000
vt 0.875000 0.875000
vt 0.875000 0.812500
vt 0.875000 0.312500
vt 0.875000 0.750000
vt 0.875000 0.250000
vt 0.875000 0.687500
vt 0.875000 0.187500
vt 0.875000 0.625000
vt 0.875000 0.125000
vt 0.875000 0.562500
vt 0.875000 0.062500
vt 0.875000 0.500000
vt 0.890625 1.000000
vt 0.875000 0.937500
vt 0.890625 0.000000
vt 0.843750 0.187500
vt 0.843750 0.125000
vt 0.843750 0.625000
vt 0.843750 0.562500
vt 0.843750 0.062500
vt 0.843750 0.500000
vt 0.859375 1.000000
vt 0.843750 0.937500
vt 0.859375 0.000000
vt 0.843750 0.437500
vt 0.843750 0.875000
vt 0.843750 0.375000
vt 0.843750 0.812500
vt 0.843750 0.312500
vt 0.843750 0.750000
vt 0.843750 0.250000
vt 0.843750 0.687500
vt 0.812500 0.875000
vt 0.812500 0.812500
vt 0.812500 0.375000
vt 0.812500 0.312500
vt 0.812500 0.750000
vt 0.812500 0.250000
vt 0.812500 0.687500
vt 0.812500 0.187500
vt 0.812500 0.625000
vt 0.812500 0.125000
vt 0.812500 0.562500
vt 0.812500 0.062500
vt 0.812500 0.500000
vt 0.828125 1.000000
vt 0.812500 0.937500
vt 0.828125 0.000000
vt 0.812500 0.437500
vt 0.781250 0.625000
vt 0.781250 0.562500
vt 0.781250 0.125000
vt 0.781250 0.062500
vt 0.781250 0.500000
vt 0.796875 1.000000
vt 0.781250 0.937500
vt 0.796875 0.000000
vt 0.781250 0.437500
vt 0.781250 0.875000
vt 0.781250 0.375000
vt 0.781250 0.812500
vt 0.781250 0.312500
vt 0.781250 0.750000
vt 0.781250 0.250000
vt 0.781250 0.687500
vt 0.781250 0.187500
vt 0.765625 1.000000
vt 0.765625 0.000000
s 0
usemtl Material.001
f 1/1/1 2/2/1 4/3/1 3/4/1
f 3/4/2 4/3/2 6/5/2 5/6/2
f 5/6/3 6/5/3 8/7/3 7/8/3
f 7/8/4 8/7/4 10/9/4 9/10/4
f 9/10/5 10/9/5 12/11/5 11/12/5
f 11/12/6 12/11/6 14/13/6 13/14/6
f 13/14/7 14/13/7 16/15/7 15/16/7
f 15/16/8 16/15/8 18/17/8 17/18/8
f 17/18/9 18/17/9 20/19/9 19/20/9
f 19/20/10 20/19/10 22/21/10 21/22/10
f 21/22/11 22/21/11 24/23/11 23/24/11
f 23/24/12 24/23/12 26/25/12 25/26/12
f 25/26/13 26/25/13 28/27/13 27/28/13
f 27/28/14 28/27/14 30/29/14 29/30/14
f 29/30/15 30/29/15 32/31/15 31/32/15
f 31/32/16 32/31/16 34/33/16 33/34/16
f 33/34/17 34/33/17 36/35/17 35/36/17
f 35/36/18 36/35/18 38/37/18 37/38/18
f 37/38/19 38/37/19 40/39/19 39/40/19
f 39/40/20 40/39/20 42/41/20 41/42/20
f 41/42/21 42/41/21 44/43/21 43/44/21
f 43/44/22 44/43/22 46/45/22 45/46/22
f 45/46/23 46/45/23 48/47/23 47/48/23
f 47/48/24 48/47/24 50/49/24 49/50/24
f 49/50/25 50/49/25 52/51/25 51/52/25
f 51/52/26 52/51/26 54/53/26 53/54/26
f 53/54/27 54/53/27 56/55/27 55/56/27
f 55/56/28 56/55/28 58/57/28 57/58/28
f 57/58/29 58/57/29 60/59/29 59/60/29
f 59/60/30 60/59/30 62/61/30 61/62/30
f 4/63/31 2/64/31 64/65/31 62/66/31 60/67/31 58/68/31 56/69/31 54/70/31 52/71/31 50/72/31 48/73/31 46/74/31 44/75/31 42/76/31 40/77/31 38/78/31 36/79/31 34/80/31 32/81/31 30/82/31 28/83/31 26/84/31 24/85/31 22/86/31 20/87/31 18/88/31 16/89/31 14/90/31 12/91/31 10/92/31 8/93/31 6/94/31
f 61/62/32 62/61/32 64/95/32 63/96/32
f 63/96/33 64/95/33 2/97/33 1/98/33
f 1/99/34 3/100/34 5/101/34 7/102/34 9/103/34 11/104/34 13/105/34 15/106/34 17/107/34 19/108/34 21/109/34 23/110/34 25/111/34 27/112/34 29/113/34 31/114/34 33/115/34 35/116/34 37/117/34 39/118/34 41/119/34 43/120/34 45/121/34 47/122/34 49/123/34 51/124/34 53/125/34 55/126/34 57/127/34 59/128/34 61/129/34 63/130/34
s 1
usemtl Material.003
f 65/131/35 539/132/36 72/133/37 73/134/38
f 70/135/39 542/136/40 80/137/41 81/138/42
f 540/139/43 65/131/35 73/134/38 74/140/44
f 543/141/45 70/135/39 81/138/42 82/142/46
f 66/143/47 540/139/43 74/140/44 75/144/48
f 544/145/49 543/141/45 82/142/46 83/146/50
f 541/147/51 66/143/47 75/144/48 76/148/52
f 545/149/53 544/145/49 83/146/50 84/150/54
f 67/151/55 541/147/51 76/148/52 77/152/56
f 546/153/57 545/149/53 84/150/54 85/154/58
f 68/18/59 67/151/55 77/152/56 78/20/60
f 538/155/61 146/156/31 71/157/62
f 372/158/34 546/153/57 85/154/58
f 69/159/63 68/18/59 78/20/60 79/160/64
f 539/132/36 538/155/61 71/157/62 72/133/37
f 542/136/40 69/159/63 79/160/64 80/137/41
f 72/133/37 71/157/62 86/161/65 87/162/66
f 80/137/41 79/160/64 94/163/67 95/164/68
f 73/134/38 72/133/37 87/162/66 88/165/69
f 81/138/42 80/137/41 95/164/68 96/166/70
f 74/140/44 73/134/38 88/165/69 89/167/71
f 82/142/46 81/138/42 96/166/70 97/168/72
f 75/144/48 74/140/44 89/167/71 90/169/73
f 83/146/50 82/142/46 97/168/72 98/170/74
f 76/148/52 75/144/48 90/169/73 91/171/75
f 84/150/54 83/146/50 98/170/74 99/172/76
f 77/152/56 76/148/52 91/171/75 92/173/77
f 85/154/58 84/150/54 99/172/76 100/174/78
f 78/20/60 77/152/56 92/173/77 93/22/79
f 71/157/62 146/175/31 86/161/65
f 372/176/34 85/154/58 100/174/78
f 79/160/64 78/20/60 93/22/79 94/163/67
f 91/171/75 90/169/73 105/177/80 106/178/81
f 99/172/76 98/170/74 113/179/82 114/180/83
f 92/173/77 91/171/75 106/178/81 107/181/84
f 100/174/78 99/172/76 114/180/83 115/182/85
f 93/22/79 92/173/77 107/181/84 108/24/86
f 86/161/65 146/183/31 101/184/87
f 372/185/34 100/174/78 115/182/85
f 94/163/67 93/22/79 108/24/86 109/186/88
f 87/162/66 86/161/65 101/184/87 102/187/89
f 95/164/68 94/163/67 109/186/88 110/188/90
f 88/165/69 87/162/66 102/187/89 103/189/91
f 96/166/70 95/164/68 110/188/90 111/190/92
f 89/167/71 88/165/69 103/189/91 104/191/93
f 97/168/72 96/166/70 111/190/92 112/192/94
f 90/169/73 89/167/71 104/191/93 105/177/80
f 98/170/74 97/168/72 112/192/94 113/179/82
f 110/188/90 109/186/88 124/193/95 125/194/96
f 103/189/91 102/187/89 117/195/97 118/196/98
f 111/190/92 110/188/90 125/194/96 126/197/99
f 104/191/93 103/189/91 118/196/98 119/198/100
f 112/192/94 111/190/92 126/197/99 127/199/101
f 105/177/80 104/191/93 119/198/100 120/200/102
f 113/179/82 112/192/94 127/199/101 128/201/103
f 106/178/81 105/177/80 120/200/102 121/202/104
f 114/180/83 113/179/82 128/201/103 129/203/105
f 107/181/84 106/178/81 121/202/104 122/204/106
f 115/182/85 114/180/83 129/203/105 130/205/107
f 108/24/86 107/181/84 122/204/106 123/26/108
f 101/184/87 146/206/31 116/207/109
f 372/208/34 115/182/85 130/205/107
f 109/186/88 108/24/86 123/26/108 124/193/95
f 102/187/89 101/184/87 116/207/109 117/195/97
f 129/203/105 128/201/103 143/209/110 144/210/111
f 122/204/106 121/202/104 136/211/112 137/212/113
f 130/205/107 129/203/105 144/210/111 145/213/114
f 123/26/108 122/204/106 137/212/113 138/28/115
f 116/207/109 146/214/31 131/215/116
f 372/216/34 130/205/107 145/213/114
f 124/193/95 123/26/108 138/28/115 139/217/117
f 117/195/97 116/207/109 131/215/116 132/218/118
f 125/194/96 124/193/95 139/217/117 140/219/119
f 118/196/98 117/195/97 132/218/118 133/220/120
f 126/197/99 125/194/96 140/219/119 141/221/121
f 119/198/100 118/196/98 133/220/120 134/222/122
f 127/199/101 126/197/99 141/221/121 142/223/123
f 120/200/102 119/198/100 134/222/122 135/224/124
f 128/201/103 127/199/101 142/223/123 143/209/110
f 121/202/104 120/200/102 135/224/124 136/211/112
f 133/220/120 132/218/118 148/225/125 149/226/126
f 141/221/121 140/219/119 156/227/127 157/228/128
f 134/222/122 133/220/120 149/226/126 150/229/129
f 142/223/123 141/221/121 157/228/128 158/230/130
f 135/224/124 134/222/122 150/229/129 151/231/131
f 143/209/110 142/223/123 158/230/130 159/232/132
f 136/211/112 135/224/124 151/231/131 152/233/133
f 144/210/111 143/209/110 159/232/132 160/234/134
f 137/212/113 136/211/112 152/233/133 153/235/135
f 145/213/114 144/210/111 160/234/134 161/236/136
f 138/28/115 137/212/113 153/235/135 154/30/137
f 131/215/116 146/237/31 147/238/138
f 372/239/34 145/213/114 161/236/136
f 139/217/117 138/28/115 154/30/137 155/240/139
f 132/218/118 131/215/116 147/238/138 148/225/125
f 140/219/119 139/217/117 155/240/139 156/227/127
f 153/235/135 152/233/133 167/241/140 168/242/141
f 161/236/136 160/234/134 175/243/142 176/244/143
f 154/30/137 153/235/135 168/242/141 169/32/144
f 147/238/138 146/245/31 162/246/145
f 372/247/34 161/236/136 176/244/143
f 155/240/139 154/30/137 169/32/144 170/248/146
f 148/225/125 147/238/138 162/246/145 163/249/147
f 156/227/127 155/240/139 170/248/146 171/250/148
f 149/226/126 148/225/125 163/249/147 164/251/149
f 157/228/128 156/227/127 171/250/148 172/252/150
f 150/229/129 149/226/126 164/251/149 165/253/151
f 158/230/130 157/228/128 172/252/150 173/254/152
f 151/231/131 150/229/129 165/253/151 166/255/153
f 159/232/132 158/230/130 173/254/152 174/256/154
f 152/233/133 151/231/131 166/255/153 167/241/140
f 160/234/134 159/232/132 174/256/154 175/243/142
f 172/252/150 171/250/148 186/257/155 187/258/156
f 165/253/151 164/251/149 179/259/157 180/260/158
f 173/254/152 172/252/150 187/258/156 188/261/159
f 166/255/153 165/253/151 180/260/158 181/262/160
f 174/256/154 173/254/152 188/261/159 189/263/161
f 167/241/140 166/255/153 181/262/160 182/264/162
f 175/243/142 174/256/154 189/263/161 190/265/163
f 168/242/141 167/241/140 182/264/162 183/266/164
f 176/244/143 175/243/142 190/265/163 191/267/165
f 169/32/144 168/242/141 183/266/164 184/268/166
f 162/246/145 146/269/31 177/270/167
f 372/271/34 176/244/143 191/267/165
f 170/248/146 169/32/144 184/268/166 185/272/168
f 163/249/147 162/246/145 177/270/167 178/273/169
f 171/250/148 170/248/146 185/272/168 186/257/155
f 164/251/149 163/249/147 178/273/169 179/259/157
f 191/267/165 190/265/163 205/274/170 206/275/171
f 184/268/166 183/266/164 198/276/172 199/277/173
f 177/270/167 146/278/31 192/279/174
f 372/280/34 191/267/165 206/275/171
f 185/272/168 184/268/166 199/277/173 200/281/175
f 178/273/169 177/270/167 192/279/174 193/282/176
f 186/257/155 185/272/168 200/281/175 201/283/177
f 179/259/157 178/273/169 193/282/176 194/284/178
f 187/258/156 186/257/155 201/283/177 202/285/179
f 180/260/158 179/259/157 194/284/178 195/286/180
f 188/261/159 187/258/156 202/285/179 203/287/181
f 181/262/160 180/260/158 195/286/180 196/288/182
f 189/263/161 188/261/159 203/287/181 204/289/183
f 182/264/162 181/262/160 196/288/182 197/290/184
f 190/265/163 189/263/161 204/289/183 205/274/170
f 183/266/164 182/264/162 197/290/184 198/276/172
f 203/287/181 202/285/179 217/291/185 218/292/186
f 196/288/182 195/286/180 210/293/187 211/294/188
f 204/289/183 203/287/181 218/292/186 219/295/189
f 197/290/184 196/288/182 211/294/188 212/296/190
f 205/274/170 204/289/183 219/295/189 220/297/191
f 198/276/172 197/290/184 212/296/190 213/298/192
f 206/275/171 205/274/170 220/297/191 221/299/193
f 199/277/173 198/276/172 213/298/192 214/300/194
f 192/279/174 146/301/31 207/302/195
f 372/303/34 206/275/171 221/299/193
f 200/281/175 199/277/173 214/300/194 215/304/196
f 193/282/176 192/279/174 207/302/195 208/305/197
f 201/283/177 200/281/175 215/304/196 216/306/198
f 194/284/178 193/282/176 208/305/197 209/307/199
f 202/285/179 201/283/177 216/306/198 217/291/185
f 195/286/180 194/284/178 209/307/199 210/293/187
f 207/302/195 146/308/31 222/309/200
f 372/310/34 221/299/193 236/311/201
f 215/304/196 214/300/194 229/312/202 230/313/203
f 208/305/197 207/302/195 222/309/200 223/314/204
f 216/306/198 215/304/196 230/313/203 231/315/205
f 209/307/199 208/305/197 223/314/204 224/316/206
f 217/291/185 216/306/198 231/315/205 232/317/207
f 210/293/187 209/307/199 224/316/206 225/318/208
f 218/292/186 217/291/185 232/317/207 233/319/209
f 211/294/188 210/293/187 225/318/208 226/320/210
f 219/295/189 218/292/186 233/319/209 234/321/211
f 212/296/190 211/294/188 226/320/210 227/322/212
f 220/297/191 219/295/189 234/321/211 235/323/213
f 213/298/192 212/296/190 227/322/212 228/324/214
f 221/299/193 220/297/191 235/323/213 236/311/201
f 214/300/194 213/298/192 228/324/214 229/312/202
f 226/320/210 225/318/208 240/325/215 241/326/216
f 234/321/211 233/319/209 248/327/217 249/328/218
f 227/322/212 226/320/210 241/326/216 242/329/219
f 235/323/213 234/321/211 249/328/218 250/330/220
f 228/324/214 227/322/212 242/329/219 243/331/221
f 236/311/201 235/323/213 250/330/220 251/332/222
f 229/312/202 228/324/214 243/331/221 244/333/223
f 222/309/200 146/334/31 237/335/224
f 372/336/34 236/311/201 251/332/222
f 230/313/203 229/312/202 244/333/223 245/337/225
f 223/314/204 222/309/200 237/335/224 238/338/226
f 231/315/205 230/313/203 245/337/225 246/339/227
f 224/316/206 223/314/204 238/338/226 239/340/228
f 232/317/207 231/315/205 246/339/227 247/341/229
f 225/318/208 224/316/206 239/340/228 240/325/215
f 233/319/209 232/317/207 247/341/229 248/327/217
f 245/337/225 244/333/223 259/342/230 260/343/231
f 238/338/226 237/335/224 252/344/232 253/345/233
f 246/339/227 245/337/225 260/343/231 261/346/234
f 239/340/228 238/338/226 253/345/233 254/347/235
f 247/341/229 246/339/227 261/346/234 262/348/236
f 240/325/215 239/340/228 254/347/235 255/349/237
f 248/327/217 247/341/229 262/348/236 263/350/238
f 241/326/216 240/325/215 255/349/237 256/351/239
f 249/328/218 248/327/217 263/350/238 264/352/240
f 242/329/219 241/326/216 256/351/239 257/353/241
f 250/330/220 249/328/218 264/352/240 265/354/242
f 243/331/221 242/329/219 257/353/241 258/355/243
f 251/332/222 250/330/220 265/354/242 266/356/244
f 244/333/223 243/331/221 258/355/243 259/342/230
f 237/335/224 146/357/31 252/344/232
f 372/358/34 251/332/222 266/356/244
f 264/352/240 263/350/238 278/359/245 279/360/246
f 257/353/241 256/351/239 271/361/247 272/362/248
f 265/354/242 264/352/240 279/360/246 280/363/249
f 258/355/243 257/353/241 272/362/248 273/364/250
f 266/356/244 265/354/242 280/363/249 281/365/251
f 259/342/230 258/355/243 273/364/250 274/366/252
f 252/344/232 146/367/31 267/368/253
f 372/369/34 266/356/244 281/365/251
f 260/343/231 259/342/230 274/366/252 275/370/254
f 253/345/233 252/344/232 267/368/253 268/371/255
f 261/346/234 260/343/231 275/370/254 276/372/256
f 254/347/235 253/345/233 268/371/255 269/373/257
f 262/348/236 261/346/234 276/372/256 277/374/258
f 255/349/237 254/347/235 269/373/257 270/375/259
f 263/350/238 262/348/236 277/374/258 278/359/245
f 256/351/239 255/349/237 270/375/259 271/361/247
f 268/371/255 267/368/253 282/376/260 283/377/261
f 276/372/256 275/370/254 290/378/262 291/379/263
f 269/373/257 268/371/255 283/377/261 284/380/264
f 277/374/258 276/372/256 291/379/263 292/381/265
f 270/375/259 269/373/257 284/380/264 285/382/266
f 278/359/245 277/374/258 292/381/265 293/383/267
f 271/361/247 270/375/259 285/382/266 286/384/268
f 279/360/246 278/359/245 293/383/267 294/385/269
f 272/362/248 271/361/247 286/384/268 287/386/270
f 280/363/249 279/360/246 294/385/269 295/387/271
f 273/364/250 272/362/248 287/386/270 288/388/272
f 281/365/251 280/363/249 295/387/271 296/389/273
f 274/366/252 273/364/250 288/388/272 289/390/274
f 267/368/253 146/391/31 282/376/260
f 372/392/34 281/365/251 296/389/273
f 275/370/254 274/366/252 289/390/274 290/378/262
f 287/386/270 286/384/268 301/393/275 302/394/276
f 295/387/271 294/385/269 309/395/277 310/396/278
f 288/388/272 287/386/270 302/394/276 303/397/279
f 296/389/273 295/387/271 310/396/278 311/398/280
f 289/390/274 288/388/272 303/397/279 304/399/281
f 282/376/260 146/400/31 297/401/282
f 372/402/34 296/389/273 311/398/280
f 290/378/262 289/390/274 304/399/281 305/403/283
f 283/377/261 282/376/260 297/401/282 298/404/284
f 291/379/263 290/378/262 305/403/283 306/405/285
f 284/380/264 283/377/261 298/404/284 299/406/286
f 292/381/265 291/379/263 306/405/285 307/407/287
f 285/382/266 284/380/264 299/406/286 300/408/288
f 293/383/267 292/381/265 307/407/287 308/409/289
f 286/384/268 285/382/266 300/408/288 301/393/275
f 294/385/269 293/383/267 308/409/289 309/395/277
f 306/405/285 305/403/283 320/410/290 321/411/291
f 299/406/286 298/404/284 313/412/292 314/413/293
f 307/407/287 306/405/285 321/411/291 322/414/294
f 300/408/288 299/406/286 314/413/293 315/415/295
f 308/409/289 307/407/287 322/414/294 323/416/296
f 301/393/275 300/408/288 315/415/295 316/417/297
f 309/395/277 308/409/289 323/416/296 324/418/298
f 302/394/276 301/393/275 316/417/297 317/419/299
f 310/396/278 309/395/277 324/418/298 325/420/300
f 303/397/279 302/394/276 317/419/299 318/421/301
f 311/398/280 310/396/278 325/420/300 326/422/302
f 304/399/281 303/397/279 318/421/301 319/423/303
f 297/401/282 146/424/31 312/425/304
f 372/426/34 311/398/280 326/422/302
f 305/403/283 304/399/281 319/423/303 320/410/290
f 298/404/284 297/401/282 312/425/304 313/412/292
f 325/420/300 324/418/298 339/427/305 340/428/306
f 318/421/301 317/419/299 332/429/307 333/430/308
f 326/422/302 325/420/300 340/428/306 341/431/309
f 319/423/303 318/421/301 333/430/308 334/432/310
f 312/425/304 146/433/31 327/434/311
f 372/435/34 326/422/302 341/431/309
f 320/410/290 319/423/303 334/432/310 335/436/312
f 313/412/292 312/425/304 327/434/311 328/437/313
f 321/411/291 320/410/290 335/436/312 336/438/314
f 314/413/293 313/412/292 328/437/313 329/439/315
f 322/414/294 321/411/291 336/438/314 337/440/316
f 315/415/295 314/413/293 329/439/315 330/441/317
f 323/416/296 322/414/294 337/440/316 338/442/318
f 316/417/297 315/415/295 330/441/317 331/443/319
f 324/418/298 323/416/296 338/442/318 339/427/305
f 317/419/299 316/417/297 331/443/319 332/429/307
f 337/440/316 336/438/314 351/444/320 352/445/321
f 330/441/317 329/439/315 344/446/322 345/447/323
f 338/442/318 337/440/316 352/445/321 353/448/324
f 331/443/319 330/441/317 345/447/323 346/449/325
f 339/427/305 338/442/318 353/448/324 354/450/326
f 332/429/307 331/443/319 346/449/325 347/451/327
f 340/428/306 339/427/305 354/450/326 355/452/328
f 333/430/308 332/429/307 347/451/327 348/453/329
f 341/431/309 340/428/306 355/452/328 356/454/330
f 334/432/310 333/430/308 348/453/329 349/455/331
f 327/434/311 146/456/31 342/457/332
f 372/458/34 341/431/309 356/454/330
f 335/436/312 334/432/310 349/455/331 350/459/333
f 328/437/313 327/434/311 342/457/332 343/460/334
f 336/438/314 335/436/312 350/459/333 351/444/320
f 329/439/315 328/437/313 343/460/334 344/446/322
f 356/454/330 355/452/328 370/461/335 371/462/336
f 349/455/331 348/453/329 363/463/337 364/464/338
f 342/457/332 146/465/31 357/466/339
f 372/467/34 356/454/330 371/462/336
f 350/459/333 349/455/331 364/464/338 365/468/340
f 343/460/334 342/457/332 357/466/339 358/469/341
f 351/444/320 350/459/333 365/468/340 366/470/342
f 344/446/322 343/460/334 358/469/341 359/471/343
f 352/445/321 351/444/320 366/470/342 367/472/344
f 345/447/323 344/446/322 359/471/343 360/473/345
f 353/448/324 352/445/321 367/472/344 368/474/346
f 346/449/325 345/447/323 360/473/345 361/475/347
f 354/450/326 353/448/324 368/474/346 369/476/348
f 347/451/327 346/449/325 361/475/347 362/477/349
f 355/452/328 354/450/326 369/476/348 370/461/335
f 348/453/329 347/451/327 362/477/349 363/463/337
f 360/473/345 359/471/343 375/478/350 376/479/351
f 368/474/346 367/472/344 383/480/352 384/481/353
f 361/475/347 360/473/345 376/479/351 377/482/354
f 369/476/348 368/474/346 384/481/353 385/483/355
f 362/477/349 361/475/347 377/482/354 378/484/356
f 370/461/335 369/476/348 385/483/355 386/485/357
f 363/463/337 362/477/349 378/484/356 379/486/358
f 371/462/336 370/461/335 386/485/357 387/487/359
f 364/464/338 363/463/337 379/486/358 380/488/360
f 357/466/339 146/489/31 373/490/361
f 372/491/34 371/462/336 387/487/359
f 365/468/340 364/464/338 380/488/360 381/492/362
f 358/469/341 357/466/339 373/490/361 374/493/363
f 366/470/342 365/468/340 381/492/362 382/494/364
f 359/471/343 358/469/341 374/493/363 375/478/350
f 367/472/344 366/470/342 382/494/364 383/480/352
f 380/488/360 379/486/358 394/495/365 395/496/366
f 373/490/361 146/497/31 388/498/367
f 372/499/34 387/487/359 402/500/368
f 381/492/362 380/488/360 395/496/366 396/501/369
f 374/493/363 373/490/361 388/498/367 389/502/370
f 382/494/364 381/492/362 396/501/369 397/503/371
f 375/478/350 374/493/363 389/502/370 390/504/372
f 383/480/352 382/494/364 397/503/371 398/505/373
f 376/479/351 375/478/350 390/504/372 391/506/374
f 384/481/353 383/480/352 398/505/373 399/507/375
f 377/482/354 376/479/351 391/506/374 392/508/376
f 385/483/355 384/481/353 399/507/375 400/509/377
f 378/484/356 377/482/354 392/508/376 393/510/378
f 386/485/357 385/483/355 400/509/377 401/511/379
f 379/486/358 378/484/356 393/510/378 394/495/365
f 387/487/359 386/485/357 401/511/379 402/500/368
f 399/507/375 398/505/373 413/512/380 414/513/381
f 392/508/376 391/506/374 406/514/382 407/515/383
f 400/509/377 399/507/375 414/513/381 415/516/384
f 393/510/378 392/508/376 407/515/383 408/517/385
f 401/511/379 400/509/377 415/516/384 416/518/386
f 394/495/365 393/510/378 408/517/385 409/519/387
f 402/500/368 401/511/379 416/518/386 417/520/388
f 395/496/366 394/495/365 409/519/387 410/521/389
f 388/498/367 146/522/31 403/523/390
f 372/524/34 402/500/368 417/520/388
f 396/501/369 395/496/366 410/521/389 411/525/391
f 389/502/370 388/498/367 403/523/390 404/526/392
f 397/503/371 396/501/369 411/525/391 412/527/393
f 390/504/372 389/502/370 404/526/392 405/528/394
f 398/505/373 397/503/371 412/527/393 413/512/380
f 391/506/374 390/504/372 405/528/394 406/514/382
f 403/523/390 146/529/31 418/530/395
f 372/531/34 417/520/388 432/532/396
f 411/525/391 410/521/389 425/98/397 426/533/398
f 404/526/392 403/523/390 418/530/395 419/534/399
f 412/527/393 411/525/391 426/533/398 427/535/400
f 405/528/394 404/526/392 419/534/399 420/536/401
f 413/512/380 412/527/393 427/535/400 428/537/402
f 406/514/382 405/528/394 420/536/401 421/538/403
f 414/513/381 413/512/380 428/537/402 429/539/404
f 407/515/383 406/514/382 421/538/403 422/540/405
f 415/516/384 414/513/381 429/539/404 430/541/406
f 408/517/385 407/515/383 422/540/405 423/542/407
f 416/518/386 415/516/384 430/541/406 431/543/408
f 409/519/387 408/517/385 423/542/407 424/544/409
f 417/520/388 416/518/386 431/543/408 432/532/396
f 410/521/389 409/519/387 424/544/409 425/98/397
f 422/545/405 421/546/403 436/547/410 437/548/411
f 430/549/406 429/550/404 444/551/412 445/552/413
f 423/553/407 422/545/405 437/548/411 438/554/414
f 431/555/408 430/549/406 445/552/413 446/556/415
f 424/557/409 423/553/407 438/554/414 439/558/416
f 432/559/396 431/555/408 446/556/415 447/560/417
f 425/1/397 424/557/409 439/558/416 440/561/418
f 418/562/395 146/563/31 433/564/419
f 372/565/34 432/559/396 447/560/417
f 426/566/398 425/1/397 440/561/418 441/567/420
f 419/568/399 418/562/395 433/564/419 434/569/421
f 427/570/400 426/566/398 441/567/420 442/571/422
f 420/572/401 419/568/399 434/569/421 435/573/423
f 428/574/402 427/570/400 442/571/422 443/575/424
f 421/546/403 420/572/401 435/573/423 436/547/410
f 429/550/404 428/574/402 443/575/424 444/551/412
f 441/567/420 440/561/418 455/576/425 456/577/426
f 434/569/421 433/564/419 448/578/427 449/579/428
f 442/571/422 441/567/420 456/577/426 457/580/429
f 435/573/423 434/569/421 449/579/428 450/581/430
f 443/575/424 442/571/422 457/580/429 458/582/431
f 436/547/410 435/573/423 450/581/430 451/583/432
f 444/551/412 443/575/424 458/582/431 459/584/433
f 437/548/411 436/547/410 451/583/432 452/585/434
f 445/552/413 444/551/412 459/584/433 460/586/435
f 438/554/414 437/548/411 452/585/434 453/587/436
f 446/556/415 445/552/413 460/586/435 461/588/437
f 439/558/416 438/554/414 453/587/436 454/589/438
f 447/560/417 446/556/415 461/588/437 462/590/439
f 440/561/418 439/558/416 454/589/438 455/576/425
f 433/564/419 146/591/31 448/578/427
f 372/592/34 447/560/417 462/590/439
f 460/586/435 459/584/433 474/593/440 475/594/441
f 453/587/436 452/585/434 467/595/442 468/596/443
f 461/588/437 460/586/435 475/594/441 476/597/444
f 454/589/438 453/587/436 468/596/443 469/598/445
f 462/590/439 461/588/437 476/597/444 477/599/446
f 455/576/425 454/589/438 469/598/445 470/600/447
f 448/578/427 146/601/31 463/602/448
f 372/603/34 462/590/439 477/599/446
f 456/577/426 455/576/425 470/600/447 471/604/449
f 449/579/428 448/578/427 463/602/448 464/605/450
f 457/580/429 456/577/426 471/604/449 472/606/451
f 450/581/430 449/579/428 464/605/450 465/607/452
f 458/582/431 457/580/429 472/606/451 473/608/453
f 451/583/432 450/581/430 465/607/452 466/609/454
f 459/584/433 458/582/431 473/608/453 474/593/440
f 452/585/434 451/583/432 466/609/454 467/595/442
f 472/606/451 471/604/449 486/610/455 487/611/456
f 465/607/452 464/605/450 479/612/457 480/613/458
f 473/608/453 472/606/451 487/611/456 488/614/459
f 466/609/454 465/607/452 480/613/458 481/615/460
f 474/593/440 473/608/453 488/614/459 489/616/461
f 467/595/442 466/609/454 481/615/460 482/617/462
f 475/594/441 474/593/440 489/616/461 490/618/463
f 468/596/443 467/595/442 482/617/462 483/619/464
f 476/597/444 475/594/441 490/618/463 491/620/465
f 469/598/445 468/596/443 483/619/464 484/621/466
f 477/599/446 476/597/444 491/620/465 492/622/467
f 470/600/447 469/598/445 484/621/466 485/623/468
f 463/602/448 146/624/31 478/625/469
f 372/626/34 477/599/446 492/622/467
f 471/604/449 470/600/447 485/623/468 486/610/455
f 464/605/450 463/602/448 478/625/469 479/612/457
f 491/620/465 490/618/463 505/627/470 506/628/471
f 484/621/466 483/619/464 498/629/472 499/630/473
f 492/622/467 491/620/465 506/628/471 507/631/474
f 485/623/468 484/621/466 499/630/473 500/632/475
f 478/625/469 146/633/31 493/634/476
f 372/635/34 492/622/467 507/631/474
f 486/610/455 485/623/468 500/632/475 501/636/477
f 479/612/457 478/625/469 493/634/476 494/637/478
f 487/611/456 486/610/455 501/636/477 502/638/479
f 480/613/458 479/612/457 494/637/478 495/639/480
f 488/614/459 487/611/456 502/638/479 503/640/481
f 481/615/460 480/613/458 495/639/480 496/641/482
f 489/616/461 488/614/459 503/640/481 504/642/483
f 482/617/462 481/615/460 496/641/482 497/643/484
f 490/618/463 489/616/461 504/642/483 505/627/470
f 483/619/464 482/617/462 497/643/484 498/629/472
f 495/639/480 494/637/478 509/644/485 510/645/486
f 503/640/481 502/638/479 517/646/487 518/647/488
f 496/641/482 495/639/480 510/645/486 511/648/489
f 504/642/483 503/640/481 518/647/488 519/649/490
f 497/643/484 496/641/482 511/648/489 512/650/491
f 505/627/470 504/642/483 519/649/490 520/651/492
f 498/629/472 497/643/484 512/650/491 513/652/493
f 506/628/471 505/627/470 520/651/492 521/653/494
f 499/630/473 498/629/472 513/652/493 514/654/495
f 507/631/474 506/628/471 521/653/494 522/655/496
f 500/632/475 499/630/473 514/654/495 515/656/497
f 493/634/476 146/657/31 508/658/498
f 372/659/34 507/631/474 522/655/496
f 501/636/477 500/632/475 515/656/497 516/660/499
f 494/637/478 493/634/476 508/658/498 509/644/485
f 502/638/479 501/636/477 516/660/499 517/646/487
f 514/654/495 513/652/493 528/661/500 529/662/501
f 522/655/496 521/653/494 536/663/502 537/664/503
f 515/656/497 514/654/495 529/662/501 530/665/504
f 508/658/498 146/666/31 523/667/505
f 372/668/34 522/655/496 537/664/503
f 516/660/499 515/656/497 530/665/504 531/669/506
f 509/644/485 508/658/498 523/667/505 524/670/507
f 517/646/487 516/660/499 531/669/506 532/671/508
f 510/645/486 509/644/485 524/670/507 525/672/509
f 518/647/488 517/646/487 532/671/508 533/673/510
f 511/648/489 510/645/486 525/672/509 526/674/511
f 519/649/490 518/647/488 533/673/510 534/675/512
f 512/650/491 511/648/489 526/674/511 527/676/513
f 520/651/492 519/649/490 534/675/512 535/677/514
f 513/652/493 512/650/491 527/676/513 528/661/500
f 521/653/494 520/651/492 535/677/514 536/663/502
f 533/673/510 532/671/508 542/136/40 70/135/39
f 526/674/511 525/672/509 65/131/35 540/139/43
f 534/675/512 533/673/510 70/135/39 543/141/45
f 527/676/513 526/674/511 540/139/43 66/143/47
f 535/677/514 534/675/512 543/141/45 544/145/49
f 528/661/500 527/676/513 66/143/47 541/147/51
f 536/663/502 535/677/514 544/145/49 545/149/53
f 529/662/501 528/661/500 541/147/51 67/151/55
f 537/664/503 536/663/502 545/149/53 546/153/57
f 530/665/504 529/662/501 67/151/55 68/18/59
f 523/667/505 146/678/31 538/155/61
f 372/679/34 537/664/503 546/153/57
f 531/669/506 530/665/504 68/18/59 69/159/63
f 524/670/507 523/667/505 538/155/61 539/132/36
f 532/671/508 531/669/506 69/159/63 542/136/40
f 525/672/509 524/670/507 539/132/36 65/131/35
